<svg width="18" height="18" viewBox="0 0 18 18" fill="none" xmlns="http://www.w3.org/2000/svg">
<path d="M14.6247 6.36049C14.5592 6.40018 13.0003 7.23784 13.0003 9.09512C13.0738 11.2132 14.9675 11.956 15 11.956C14.9675 11.9957 14.7141 12.9679 13.9634 13.9871C13.3677 14.8649 12.7065 15.75 11.7024 15.75C10.7473 15.75 10.4044 15.1649 9.30238 15.1649C8.11888 15.1649 7.78401 15.75 6.87788 15.75C5.8738 15.75 5.16359 14.8175 4.53538 13.9479C3.71923 12.8097 3.02552 11.0235 3.00103 9.30853C2.98453 8.39973 3.16448 7.5064 3.62127 6.74761C4.26599 5.6883 5.41701 4.9692 6.67398 4.94549C7.63707 4.91404 8.49422 5.58571 9.08197 5.58571C9.64524 5.58571 10.6983 4.94549 11.8898 4.94549C12.4041 4.946 13.7755 5.09601 14.6247 6.36049ZM9.00052 4.76404C8.82909 3.93411 9.30238 3.10418 9.7432 2.57478C10.3065 1.93455 11.1961 1.5 11.9633 1.5C12.0122 2.32993 11.7019 3.14387 11.1471 3.73668C10.6493 4.37691 9.79218 4.85888 9.00052 4.76404Z" fill="white"/>
</svg>
