<svg width="16" height="17" viewBox="0 0 16 17" fill="none" xmlns="http://www.w3.org/2000/svg">
<path fill-rule="evenodd" clip-rule="evenodd" d="M14.6667 8.65715C14.6667 12.339 11.6819 15.3238 8.00001 15.3238C4.31811 15.3238 1.33334 12.339 1.33334 8.65715C1.33334 4.97525 4.31811 1.99048 8.00001 1.99048C11.6819 1.99048 14.6667 4.97525 14.6667 8.65715ZM8.66668 5.9905C8.66668 5.62231 8.3682 5.32383 8.00001 5.32383C7.63182 5.32383 7.33334 5.62231 7.33334 5.9905V8.65717C7.33334 8.83398 7.40358 9.00355 7.5286 9.12857L9.19527 10.7952C9.45562 11.0556 9.87773 11.0556 10.1381 10.7952C10.3984 10.5349 10.3984 10.1128 10.1381 9.85243L8.66668 8.38102V5.9905Z" fill="#A7A9B1"/>
</svg>
