<svg width="24" height="24" viewBox="0 0 24 24" fill="none" xmlns="http://www.w3.org/2000/svg">
<path d="M21 10.65V12C21 16.2426 21 18.364 19.6819 19.6819C18.364 21 16.2426 21 12 21C7.75736 21 5.63604 21 4.31802 19.6819C3 18.364 3 16.2426 3 12C3 7.75736 3 5.63604 4.31802 4.31802C5.63604 3 7.75736 3 12 3H13.35" stroke="white" stroke-width="1.8" stroke-linecap="round"/>
<path d="M16.1868 4.30956L16.7708 3.72562C17.7383 2.75813 19.3069 2.75813 20.2744 3.72562C21.2418 4.69312 21.2418 6.26174 20.2744 7.22923L19.6904 7.81316M16.1868 4.30956C16.1868 4.30956 16.2598 5.55041 17.3547 6.64529C18.4496 7.74017 19.6904 7.81316 19.6904 7.81316M16.1868 4.30956L10.8185 9.67794C10.4549 10.0415 10.2731 10.2233 10.1167 10.4238C9.93224 10.6603 9.77411 10.9161 9.64509 11.1869C9.53571 11.4164 9.45441 11.6603 9.2918 12.1481L8.77117 13.71M19.6904 7.81316L14.3221 13.1815C13.9585 13.5451 13.7767 13.7269 13.5762 13.8833C13.3397 14.0678 13.0839 14.2259 12.8131 14.3549C12.5836 14.4643 12.3397 14.5456 11.8519 14.7082L10.29 15.2288M8.77117 13.71L8.43429 14.7206C8.35428 14.9607 8.41675 15.2253 8.59569 15.4043C8.77463 15.5833 9.03931 15.6457 9.27938 15.5657L10.29 15.2288M8.77117 13.71L10.29 15.2288" stroke="white" stroke-width="1.8"/>
</svg>
