<svg width="24" height="24" viewBox="0 0 24 24" fill="none" xmlns="http://www.w3.org/2000/svg">
<path d="M11.2929 5.70711L12 6.41421L12.7071 5.70711C13.5873 4.82693 14.9877 4 16.5 4C18.9251 4 21 5.98969 21 9C21 11.7598 19.6953 14.0391 17.9431 15.8947C16.1852 17.7563 14.0429 19.1202 12.5171 20.0312C12.1987 20.2213 11.8013 20.2213 11.4828 20.0312C9.95714 19.1202 7.81475 17.7563 6.05693 15.8947C4.30472 14.0391 3 11.7598 3 9C3 5.99431 5.10853 4 7.5 4C9.01232 4 10.4127 4.82693 11.2929 5.70711Z" stroke="white" stroke-width="2"/>
</svg>
