<svg width="18" height="18" viewBox="0 0 18 18" fill="none" xmlns="http://www.w3.org/2000/svg">
<path d="M16.0975 7.79366H15.5294V7.7647H9.1765V10.5882H13.1664C12.5832 12.2316 11.0198 13.4118 9.1765 13.4118C6.83689 13.4118 4.94121 11.5161 4.94121 9.17647C4.94121 6.83686 6.83689 4.94117 9.1765 4.94117C10.256 4.94117 11.239 5.34788 11.9862 6.01379L13.9826 4.01746C12.7225 2.84283 11.0363 2.11765 9.1765 2.11765C5.2776 2.11765 2.11768 5.27757 2.11768 9.17647C2.11768 13.0754 5.2776 16.2353 9.1765 16.2353C13.0754 16.2353 16.2353 13.0754 16.2353 9.17647C16.2353 8.70358 16.1871 8.24173 16.0975 7.79366Z" fill="#FFC107"/>
<path d="M2.93115 5.89108L5.25146 7.59237C5.87876 6.0386 7.39806 4.94117 9.17656 4.94117C10.2561 4.94117 11.2391 5.34788 11.9863 6.01379L13.9826 4.01746C12.7225 2.84283 11.0364 2.11765 9.17656 2.11765C6.4647 2.11765 4.11406 3.64798 2.93115 5.89108Z" fill="#FF3D00"/>
<path d="M9.17659 16.2353C10.9992 16.2353 12.6564 15.5377 13.9096 14.403L11.7244 12.5542C11.0157 13.0905 10.1348 13.4118 9.17659 13.4118C7.34019 13.4118 5.78228 12.2413 5.19497 10.6075L2.89258 12.3805C4.06032 14.6664 6.43302 16.2353 9.17659 16.2353Z" fill="#4CAF50"/>
<path d="M16.0975 7.79366H15.5295V7.76471H9.17651V10.5882H13.1664C12.8865 11.3782 12.3778 12.0579 11.7229 12.5542C11.7243 12.5542 11.7243 12.5542 11.7243 12.5542L13.9095 14.403C13.7551 14.5423 16.2353 12.7059 16.2353 9.17647C16.2353 8.70359 16.1871 8.24173 16.0975 7.79366Z" fill="#1976D2"/>
</svg>
