<svg width="25" height="24" viewBox="0 0 25 24" fill="none" xmlns="http://www.w3.org/2000/svg">
<path d="M10.5 7.5C10.5102 5.54247 10.5919 4.48235 11.2421 3.79081C11.9857 3 13.1825 3 15.5761 3H16.4224C18.816 3 20.0129 3 20.7564 3.79081C21.5 4.58162 21.5 5.85441 21.5 8.4V15.6C21.5 18.1456 21.5 19.4183 20.7564 20.2092C20.0129 21 18.816 21 16.4224 21H15.5761C13.1825 21 11.9857 21 11.2421 20.2092C10.5919 19.5176 10.5102 18.4575 10.5 16.5" stroke="white" stroke-width="2" stroke-linecap="round"/>
<path d="M16.5 12H3.5M3.5 12L7 9M3.5 12L7 15" stroke="white" stroke-width="2" stroke-linecap="round" stroke-linejoin="round"/>
</svg>
