<svg width="20" height="20" viewBox="0 0 20 20" fill="none" xmlns="http://www.w3.org/2000/svg">
<path fill-rule="evenodd" clip-rule="evenodd" d="M10 1.6665C6.31811 1.6665 3.33334 4.70474 3.33334 8.45259C3.33334 12.1711 5.46111 16.5102 8.78093 18.0618C9.55476 18.4236 10.4453 18.4236 11.2191 18.0618C14.5389 16.5102 16.6667 12.1711 16.6667 8.45259C16.6667 4.70474 13.6819 1.6665 10 1.6665ZM12.5 8.33333C12.5 9.71404 11.3807 10.8333 10 10.8333C8.61929 10.8333 7.5 9.71404 7.5 8.33333C7.5 6.95262 8.61929 5.83333 10 5.83333C11.3807 5.83333 12.5 6.95262 12.5 8.33333Z" fill="white"/>
</svg>
