<svg width="20" height="21" viewBox="0 0 20 21" fill="none" xmlns="http://www.w3.org/2000/svg">
<path fill-rule="evenodd" clip-rule="evenodd" d="M10 20.5C15.5228 20.5 20 16.0228 20 10.5C20 4.97715 15.5228 0.5 10 0.5C4.47715 0.5 0 4.97715 0 10.5C0 12.0997 0.37562 13.6116 1.04346 14.9525C1.22094 15.3088 1.28001 15.7161 1.17712 16.1006L0.58151 18.3267C0.32295 19.293 1.20701 20.177 2.17335 19.9185L4.39939 19.3229C4.78393 19.22 5.19121 19.2791 5.54753 19.4565C6.88837 20.1244 8.4003 20.5 10 20.5ZM5 9.5C5 8.94771 5.44772 8.5 6 8.5H14C14.5523 8.5 15 8.94771 15 9.5C15 10.0523 14.5523 10.5 14 10.5H6C5.44772 10.5 5 10.0523 5 9.5ZM6 12.5C5.44772 12.5 5 12.9477 5 13.5C5 14.0523 5.44772 14.5 6 14.5H10C10.5523 14.5 11 14.0523 11 13.5C11 12.9477 10.5523 12.5 10 12.5H6Z" fill="white"/>
</svg>
