<svg width="160" height="160" viewBox="0 0 160 160" fill="none" xmlns="http://www.w3.org/2000/svg">
<g clip-path="url(#clip0_711_9975)">
<path d="M160 0H0V160H160V0Z" fill="white"/>
<path d="M9.46432 6.18359H6.18359V9.46432H9.46432V6.18359Z" fill="black"/>
<path d="M12.7451 6.18359H9.46432V9.46432H12.7451V6.18359Z" fill="black"/>
<path d="M16.0258 6.18359H12.7451V9.46432H16.0258V6.18359Z" fill="black"/>
<path d="M19.3065 6.18359H16.0258V9.46432H19.3065V6.18359Z" fill="black"/>
<path d="M22.5872 6.18359H19.3065V9.46432H22.5872V6.18359Z" fill="black"/>
<path d="M25.868 6.18359H22.5872V9.46432H25.868V6.18359Z" fill="black"/>
<path d="M29.1487 6.18359H25.868V9.46432H29.1487V6.18359Z" fill="black"/>
<path d="M35.7102 6.18359H32.4294V9.46432H35.7102V6.18359Z" fill="black"/>
<path d="M42.2716 6.18359H38.9909V9.46432H42.2716V6.18359Z" fill="black"/>
<path d="M48.8331 6.18359H45.5524V9.46432H48.8331V6.18359Z" fill="black"/>
<path d="M52.1138 6.18359H48.8331V9.46432H52.1138V6.18359Z" fill="black"/>
<path d="M58.6753 6.18359H55.3945V9.46432H58.6753V6.18359Z" fill="black"/>
<path d="M65.2367 6.18359H61.956V9.46432H65.2367V6.18359Z" fill="black"/>
<path d="M68.5175 6.18359H65.2367V9.46432H68.5175V6.18359Z" fill="black"/>
<path d="M75.0789 6.18359H71.7982V9.46432H75.0789V6.18359Z" fill="black"/>
<path d="M78.3596 6.18359H75.0789V9.46432H78.3596V6.18359Z" fill="black"/>
<path d="M84.9211 6.18359H81.6404V9.46432H84.9211V6.18359Z" fill="black"/>
<path d="M88.2018 6.18359H84.9211V9.46432H88.2018V6.18359Z" fill="black"/>
<path d="M91.4826 6.18359H88.2018V9.46432H91.4826V6.18359Z" fill="black"/>
<path d="M94.7633 6.18359H91.4826V9.46432H94.7633V6.18359Z" fill="black"/>
<path d="M101.325 6.18359H98.044V9.46432H101.325V6.18359Z" fill="black"/>
<path d="M104.605 6.18359H101.325V9.46432H104.605V6.18359Z" fill="black"/>
<path d="M107.886 6.18359H104.605V9.46432H107.886V6.18359Z" fill="black"/>
<path d="M114.448 6.18359H111.167V9.46432H114.448V6.18359Z" fill="black"/>
<path d="M117.728 6.18359H114.448V9.46432H117.728V6.18359Z" fill="black"/>
<path d="M127.571 6.18359H124.29V9.46432H127.571V6.18359Z" fill="black"/>
<path d="M134.132 6.18359H130.851V9.46432H134.132V6.18359Z" fill="black"/>
<path d="M137.413 6.18359H134.132V9.46432H137.413V6.18359Z" fill="black"/>
<path d="M140.694 6.18359H137.413V9.46432H140.694V6.18359Z" fill="black"/>
<path d="M143.974 6.18359H140.694V9.46432H143.974V6.18359Z" fill="black"/>
<path d="M147.255 6.18359H143.974V9.46432H147.255V6.18359Z" fill="black"/>
<path d="M150.536 6.18359H147.255V9.46432H150.536V6.18359Z" fill="black"/>
<path d="M153.816 6.18359H150.536V9.46432H153.816V6.18359Z" fill="black"/>
<path d="M9.46432 9.46432H6.18359V12.7451H9.46432V9.46432Z" fill="black"/>
<path d="M29.1487 9.46432H25.868V12.7451H29.1487V9.46432Z" fill="black"/>
<path d="M42.2716 9.46432H38.9909V12.7451H42.2716V9.46432Z" fill="black"/>
<path d="M48.8331 9.46432H45.5524V12.7451H48.8331V9.46432Z" fill="black"/>
<path d="M55.3945 9.46432H52.1138V12.7451H55.3945V9.46432Z" fill="black"/>
<path d="M61.956 9.46432H58.6753V12.7451H61.956V9.46432Z" fill="black"/>
<path d="M65.2367 9.46432H61.956V12.7451H65.2367V9.46432Z" fill="black"/>
<path d="M68.5175 9.46432H65.2367V12.7451H68.5175V9.46432Z" fill="black"/>
<path d="M78.3596 9.46432H75.0789V12.7451H78.3596V9.46432Z" fill="black"/>
<path d="M88.2018 9.46432H84.9211V12.7451H88.2018V9.46432Z" fill="black"/>
<path d="M91.4826 9.46432H88.2018V12.7451H91.4826V9.46432Z" fill="black"/>
<path d="M101.325 9.46432H98.044V12.7451H101.325V9.46432Z" fill="black"/>
<path d="M104.605 9.46432H101.325V12.7451H104.605V9.46432Z" fill="black"/>
<path d="M107.886 9.46432H104.605V12.7451H107.886V9.46432Z" fill="black"/>
<path d="M111.167 9.46432H107.886V12.7451H111.167V9.46432Z" fill="black"/>
<path d="M114.448 9.46432H111.167V12.7451H114.448V9.46432Z" fill="black"/>
<path d="M117.728 9.46432H114.448V12.7451H117.728V9.46432Z" fill="black"/>
<path d="M124.29 9.46432H121.009V12.7451H124.29V9.46432Z" fill="black"/>
<path d="M134.132 9.46432H130.851V12.7451H134.132V9.46432Z" fill="black"/>
<path d="M153.816 9.46432H150.536V12.7451H153.816V9.46432Z" fill="black"/>
<path d="M9.46432 12.7451H6.18359V16.0258H9.46432V12.7451Z" fill="black"/>
<path d="M16.0258 12.7451H12.7451V16.0258H16.0258V12.7451Z" fill="black"/>
<path d="M19.3065 12.7451H16.0258V16.0258H19.3065V12.7451Z" fill="black"/>
<path d="M22.5872 12.7451H19.3065V16.0258H22.5872V12.7451Z" fill="black"/>
<path d="M29.1487 12.7451H25.868V16.0258H29.1487V12.7451Z" fill="black"/>
<path d="M42.2716 12.7451H38.9909V16.0258H42.2716V12.7451Z" fill="black"/>
<path d="M45.5524 12.7451H42.2716V16.0258H45.5524V12.7451Z" fill="black"/>
<path d="M52.1138 12.7451H48.8331V16.0258H52.1138V12.7451Z" fill="black"/>
<path d="M55.3945 12.7451H52.1138V16.0258H55.3945V12.7451Z" fill="black"/>
<path d="M61.956 12.7451H58.6753V16.0258H61.956V12.7451Z" fill="black"/>
<path d="M65.2367 12.7451H61.956V16.0258H65.2367V12.7451Z" fill="black"/>
<path d="M71.7982 12.7451H68.5175V16.0258H71.7982V12.7451Z" fill="black"/>
<path d="M91.4826 12.7451H88.2018V16.0258H91.4826V12.7451Z" fill="black"/>
<path d="M101.325 12.7451H98.044V16.0258H101.325V12.7451Z" fill="black"/>
<path d="M104.605 12.7451H101.325V16.0258H104.605V12.7451Z" fill="black"/>
<path d="M124.29 12.7451H121.009V16.0258H124.29V12.7451Z" fill="black"/>
<path d="M134.132 12.7451H130.851V16.0258H134.132V12.7451Z" fill="black"/>
<path d="M140.694 12.7451H137.413V16.0258H140.694V12.7451Z" fill="black"/>
<path d="M143.974 12.7451H140.694V16.0258H143.974V12.7451Z" fill="black"/>
<path d="M147.255 12.7451H143.974V16.0258H147.255V12.7451Z" fill="black"/>
<path d="M153.816 12.7451H150.536V16.0258H153.816V12.7451Z" fill="black"/>
<path d="M9.46432 16.0258H6.18359V19.3065H9.46432V16.0258Z" fill="black"/>
<path d="M16.0258 16.0258H12.7451V19.3065H16.0258V16.0258Z" fill="black"/>
<path d="M19.3065 16.0258H16.0258V19.3065H19.3065V16.0258Z" fill="black"/>
<path d="M22.5872 16.0258H19.3065V19.3065H22.5872V16.0258Z" fill="black"/>
<path d="M29.1487 16.0258H25.868V19.3065H29.1487V16.0258Z" fill="black"/>
<path d="M38.9909 16.0258H35.7102V19.3065H38.9909V16.0258Z" fill="black"/>
<path d="M42.2716 16.0258H38.9909V19.3065H42.2716V16.0258Z" fill="black"/>
<path d="M48.8331 16.0258H45.5524V19.3065H48.8331V16.0258Z" fill="black"/>
<path d="M52.1138 16.0258H48.8331V19.3065H52.1138V16.0258Z" fill="black"/>
<path d="M55.3945 16.0258H52.1138V19.3065H55.3945V16.0258Z" fill="black"/>
<path d="M61.956 16.0258H58.6753V19.3065H61.956V16.0258Z" fill="black"/>
<path d="M65.2367 16.0258H61.956V19.3065H65.2367V16.0258Z" fill="black"/>
<path d="M78.3596 16.0258H75.0789V19.3065H78.3596V16.0258Z" fill="black"/>
<path d="M84.9211 16.0258H81.6404V19.3065H84.9211V16.0258Z" fill="black"/>
<path d="M88.2018 16.0258H84.9211V19.3065H88.2018V16.0258Z" fill="black"/>
<path d="M91.4826 16.0258H88.2018V19.3065H91.4826V16.0258Z" fill="black"/>
<path d="M111.167 16.0258H107.886V19.3065H111.167V16.0258Z" fill="black"/>
<path d="M124.29 16.0258H121.009V19.3065H124.29V16.0258Z" fill="black"/>
<path d="M127.571 16.0258H124.29V19.3065H127.571V16.0258Z" fill="black"/>
<path d="M134.132 16.0258H130.851V19.3065H134.132V16.0258Z" fill="black"/>
<path d="M140.694 16.0258H137.413V19.3065H140.694V16.0258Z" fill="black"/>
<path d="M143.974 16.0258H140.694V19.3065H143.974V16.0258Z" fill="black"/>
<path d="M147.255 16.0258H143.974V19.3065H147.255V16.0258Z" fill="black"/>
<path d="M153.816 16.0258H150.536V19.3065H153.816V16.0258Z" fill="black"/>
<path d="M9.46432 19.3065H6.18359V22.5872H9.46432V19.3065Z" fill="black"/>
<path d="M16.0258 19.3065H12.7451V22.5872H16.0258V19.3065Z" fill="black"/>
<path d="M19.3065 19.3065H16.0258V22.5872H19.3065V19.3065Z" fill="black"/>
<path d="M22.5872 19.3065H19.3065V22.5872H22.5872V19.3065Z" fill="black"/>
<path d="M29.1487 19.3065H25.868V22.5872H29.1487V19.3065Z" fill="black"/>
<path d="M35.7102 19.3065H32.4294V22.5872H35.7102V19.3065Z" fill="black"/>
<path d="M38.9909 19.3065H35.7102V22.5872H38.9909V19.3065Z" fill="black"/>
<path d="M45.5524 19.3065H42.2716V22.5872H45.5524V19.3065Z" fill="black"/>
<path d="M48.8331 19.3065H45.5524V22.5872H48.8331V19.3065Z" fill="black"/>
<path d="M55.3945 19.3065H52.1138V22.5872H55.3945V19.3065Z" fill="black"/>
<path d="M58.6753 19.3065H55.3945V22.5872H58.6753V19.3065Z" fill="black"/>
<path d="M61.956 19.3065H58.6753V22.5872H61.956V19.3065Z" fill="black"/>
<path d="M65.2367 19.3065H61.956V22.5872H65.2367V19.3065Z" fill="black"/>
<path d="M71.7982 19.3065H68.5175V22.5872H71.7982V19.3065Z" fill="black"/>
<path d="M75.0789 19.3065H71.7982V22.5872H75.0789V19.3065Z" fill="black"/>
<path d="M78.3596 19.3065H75.0789V22.5872H78.3596V19.3065Z" fill="black"/>
<path d="M81.6404 19.3065H78.3596V22.5872H81.6404V19.3065Z" fill="black"/>
<path d="M84.9211 19.3065H81.6404V22.5872H84.9211V19.3065Z" fill="black"/>
<path d="M88.2018 19.3065H84.9211V22.5872H88.2018V19.3065Z" fill="black"/>
<path d="M91.4826 19.3065H88.2018V22.5872H91.4826V19.3065Z" fill="black"/>
<path d="M94.7633 19.3065H91.4826V22.5872H94.7633V19.3065Z" fill="black"/>
<path d="M98.044 19.3065H94.7633V22.5872H98.044V19.3065Z" fill="black"/>
<path d="M107.886 19.3065H104.605V22.5872H107.886V19.3065Z" fill="black"/>
<path d="M111.167 19.3065H107.886V22.5872H111.167V19.3065Z" fill="black"/>
<path d="M121.009 19.3065H117.728V22.5872H121.009V19.3065Z" fill="black"/>
<path d="M124.29 19.3065H121.009V22.5872H124.29V19.3065Z" fill="black"/>
<path d="M127.571 19.3065H124.29V22.5872H127.571V19.3065Z" fill="black"/>
<path d="M134.132 19.3065H130.851V22.5872H134.132V19.3065Z" fill="black"/>
<path d="M140.694 19.3065H137.413V22.5872H140.694V19.3065Z" fill="black"/>
<path d="M143.974 19.3065H140.694V22.5872H143.974V19.3065Z" fill="black"/>
<path d="M147.255 19.3065H143.974V22.5872H147.255V19.3065Z" fill="black"/>
<path d="M153.816 19.3065H150.536V22.5872H153.816V19.3065Z" fill="black"/>
<path d="M9.46432 22.5872H6.18359V25.868H9.46432V22.5872Z" fill="black"/>
<path d="M29.1487 22.5872H25.868V25.868H29.1487V22.5872Z" fill="black"/>
<path d="M38.9909 22.5872H35.7102V25.868H38.9909V22.5872Z" fill="black"/>
<path d="M58.6753 22.5872H55.3945V25.868H58.6753V22.5872Z" fill="black"/>
<path d="M65.2367 22.5872H61.956V25.868H65.2367V22.5872Z" fill="black"/>
<path d="M75.0789 22.5872H71.7982V25.868H75.0789V22.5872Z" fill="black"/>
<path d="M88.2018 22.5872H84.9211V25.868H88.2018V22.5872Z" fill="black"/>
<path d="M101.325 22.5872H98.044V25.868H101.325V22.5872Z" fill="black"/>
<path d="M104.605 22.5872H101.325V25.868H104.605V22.5872Z" fill="black"/>
<path d="M107.886 22.5872H104.605V25.868H107.886V22.5872Z" fill="black"/>
<path d="M111.167 22.5872H107.886V25.868H111.167V22.5872Z" fill="black"/>
<path d="M114.448 22.5872H111.167V25.868H114.448V22.5872Z" fill="black"/>
<path d="M117.728 22.5872H114.448V25.868H117.728V22.5872Z" fill="black"/>
<path d="M134.132 22.5872H130.851V25.868H134.132V22.5872Z" fill="black"/>
<path d="M153.816 22.5872H150.536V25.868H153.816V22.5872Z" fill="black"/>
<path d="M9.46432 25.868H6.18359V29.1487H9.46432V25.868Z" fill="black"/>
<path d="M12.7451 25.868H9.46432V29.1487H12.7451V25.868Z" fill="black"/>
<path d="M16.0258 25.868H12.7451V29.1487H16.0258V25.868Z" fill="black"/>
<path d="M19.3065 25.868H16.0258V29.1487H19.3065V25.868Z" fill="black"/>
<path d="M22.5872 25.868H19.3065V29.1487H22.5872V25.868Z" fill="black"/>
<path d="M25.868 25.868H22.5872V29.1487H25.868V25.868Z" fill="black"/>
<path d="M29.1487 25.868H25.868V29.1487H29.1487V25.868Z" fill="black"/>
<path d="M35.7102 25.868H32.4294V29.1487H35.7102V25.868Z" fill="black"/>
<path d="M42.2716 25.868H38.9909V29.1487H42.2716V25.868Z" fill="black"/>
<path d="M48.8331 25.868H45.5524V29.1487H48.8331V25.868Z" fill="black"/>
<path d="M55.3945 25.868H52.1138V29.1487H55.3945V25.868Z" fill="black"/>
<path d="M61.956 25.868H58.6753V29.1487H61.956V25.868Z" fill="black"/>
<path d="M68.5175 25.868H65.2367V29.1487H68.5175V25.868Z" fill="black"/>
<path d="M75.0789 25.868H71.7982V29.1487H75.0789V25.868Z" fill="black"/>
<path d="M81.6404 25.868H78.3596V29.1487H81.6404V25.868Z" fill="black"/>
<path d="M88.2018 25.868H84.9211V29.1487H88.2018V25.868Z" fill="black"/>
<path d="M94.7633 25.868H91.4826V29.1487H94.7633V25.868Z" fill="black"/>
<path d="M101.325 25.868H98.044V29.1487H101.325V25.868Z" fill="black"/>
<path d="M107.886 25.868H104.605V29.1487H107.886V25.868Z" fill="black"/>
<path d="M114.448 25.868H111.167V29.1487H114.448V25.868Z" fill="black"/>
<path d="M121.009 25.868H117.728V29.1487H121.009V25.868Z" fill="black"/>
<path d="M127.571 25.868H124.29V29.1487H127.571V25.868Z" fill="black"/>
<path d="M134.132 25.868H130.851V29.1487H134.132V25.868Z" fill="black"/>
<path d="M137.413 25.868H134.132V29.1487H137.413V25.868Z" fill="black"/>
<path d="M140.694 25.868H137.413V29.1487H140.694V25.868Z" fill="black"/>
<path d="M143.974 25.868H140.694V29.1487H143.974V25.868Z" fill="black"/>
<path d="M147.255 25.868H143.974V29.1487H147.255V25.868Z" fill="black"/>
<path d="M150.536 25.868H147.255V29.1487H150.536V25.868Z" fill="black"/>
<path d="M153.816 25.868H150.536V29.1487H153.816V25.868Z" fill="black"/>
<path d="M35.7102 29.1487H32.4294V32.4294H35.7102V29.1487Z" fill="black"/>
<path d="M38.9909 29.1487H35.7102V32.4294H38.9909V29.1487Z" fill="black"/>
<path d="M45.5524 29.1487H42.2716V32.4294H45.5524V29.1487Z" fill="black"/>
<path d="M48.8331 29.1487H45.5524V32.4294H48.8331V29.1487Z" fill="black"/>
<path d="M52.1138 29.1487H48.8331V32.4294H52.1138V29.1487Z" fill="black"/>
<path d="M55.3945 29.1487H52.1138V32.4294H55.3945V29.1487Z" fill="black"/>
<path d="M61.956 29.1487H58.6753V32.4294H61.956V29.1487Z" fill="black"/>
<path d="M65.2367 29.1487H61.956V32.4294H65.2367V29.1487Z" fill="black"/>
<path d="M75.0789 29.1487H71.7982V32.4294H75.0789V29.1487Z" fill="black"/>
<path d="M88.2018 29.1487H84.9211V32.4294H88.2018V29.1487Z" fill="black"/>
<path d="M114.448 29.1487H111.167V32.4294H114.448V29.1487Z" fill="black"/>
<path d="M117.728 29.1487H114.448V32.4294H117.728V29.1487Z" fill="black"/>
<path d="M121.009 29.1487H117.728V32.4294H121.009V29.1487Z" fill="black"/>
<path d="M127.571 29.1487H124.29V32.4294H127.571V29.1487Z" fill="black"/>
<path d="M9.46432 32.4294H6.18359V35.7102H9.46432V32.4294Z" fill="black"/>
<path d="M19.3065 32.4294H16.0258V35.7102H19.3065V32.4294Z" fill="black"/>
<path d="M22.5872 32.4294H19.3065V35.7102H22.5872V32.4294Z" fill="black"/>
<path d="M25.868 32.4294H22.5872V35.7102H25.868V32.4294Z" fill="black"/>
<path d="M29.1487 32.4294H25.868V35.7102H29.1487V32.4294Z" fill="black"/>
<path d="M32.4294 32.4294H29.1487V35.7102H32.4294V32.4294Z" fill="black"/>
<path d="M35.7102 32.4294H32.4294V35.7102H35.7102V32.4294Z" fill="black"/>
<path d="M58.6753 32.4294H55.3945V35.7102H58.6753V32.4294Z" fill="black"/>
<path d="M68.5175 32.4294H65.2367V35.7102H68.5175V32.4294Z" fill="black"/>
<path d="M75.0789 32.4294H71.7982V35.7102H75.0789V32.4294Z" fill="black"/>
<path d="M78.3596 32.4294H75.0789V35.7102H78.3596V32.4294Z" fill="black"/>
<path d="M81.6404 32.4294H78.3596V35.7102H81.6404V32.4294Z" fill="black"/>
<path d="M84.9211 32.4294H81.6404V35.7102H84.9211V32.4294Z" fill="black"/>
<path d="M88.2018 32.4294H84.9211V35.7102H88.2018V32.4294Z" fill="black"/>
<path d="M98.044 32.4294H94.7633V35.7102H98.044V32.4294Z" fill="black"/>
<path d="M101.325 32.4294H98.044V35.7102H101.325V32.4294Z" fill="black"/>
<path d="M107.886 32.4294H104.605V35.7102H107.886V32.4294Z" fill="black"/>
<path d="M111.167 32.4294H107.886V35.7102H111.167V32.4294Z" fill="black"/>
<path d="M121.009 32.4294H117.728V35.7102H121.009V32.4294Z" fill="black"/>
<path d="M124.29 32.4294H121.009V35.7102H124.29V32.4294Z" fill="black"/>
<path d="M130.851 32.4294H127.571V35.7102H130.851V32.4294Z" fill="black"/>
<path d="M134.132 32.4294H130.851V35.7102H134.132V32.4294Z" fill="black"/>
<path d="M140.694 32.4294H137.413V35.7102H140.694V32.4294Z" fill="black"/>
<path d="M153.816 32.4294H150.536V35.7102H153.816V32.4294Z" fill="black"/>
<path d="M16.0258 35.7102H12.7451V38.9909H16.0258V35.7102Z" fill="black"/>
<path d="M22.5872 35.7102H19.3065V38.9909H22.5872V35.7102Z" fill="black"/>
<path d="M35.7102 35.7102H32.4294V38.9909H35.7102V35.7102Z" fill="black"/>
<path d="M38.9909 35.7102H35.7102V38.9909H38.9909V35.7102Z" fill="black"/>
<path d="M42.2716 35.7102H38.9909V38.9909H42.2716V35.7102Z" fill="black"/>
<path d="M45.5524 35.7102H42.2716V38.9909H45.5524V35.7102Z" fill="black"/>
<path d="M52.1138 35.7102H48.8331V38.9909H52.1138V35.7102Z" fill="black"/>
<path d="M55.3945 35.7102H52.1138V38.9909H55.3945V35.7102Z" fill="black"/>
<path d="M78.3596 35.7102H75.0789V38.9909H78.3596V35.7102Z" fill="black"/>
<path d="M81.6404 35.7102H78.3596V38.9909H81.6404V35.7102Z" fill="black"/>
<path d="M88.2018 35.7102H84.9211V38.9909H88.2018V35.7102Z" fill="black"/>
<path d="M91.4826 35.7102H88.2018V38.9909H91.4826V35.7102Z" fill="black"/>
<path d="M94.7633 35.7102H91.4826V38.9909H94.7633V35.7102Z" fill="black"/>
<path d="M101.325 35.7102H98.044V38.9909H101.325V35.7102Z" fill="black"/>
<path d="M111.167 35.7102H107.886V38.9909H111.167V35.7102Z" fill="black"/>
<path d="M114.448 35.7102H111.167V38.9909H114.448V35.7102Z" fill="black"/>
<path d="M117.728 35.7102H114.448V38.9909H117.728V35.7102Z" fill="black"/>
<path d="M121.009 35.7102H117.728V38.9909H121.009V35.7102Z" fill="black"/>
<path d="M127.571 35.7102H124.29V38.9909H127.571V35.7102Z" fill="black"/>
<path d="M130.851 35.7102H127.571V38.9909H130.851V35.7102Z" fill="black"/>
<path d="M134.132 35.7102H130.851V38.9909H134.132V35.7102Z" fill="black"/>
<path d="M140.694 35.7102H137.413V38.9909H140.694V35.7102Z" fill="black"/>
<path d="M143.974 35.7102H140.694V38.9909H143.974V35.7102Z" fill="black"/>
<path d="M147.255 35.7102H143.974V38.9909H147.255V35.7102Z" fill="black"/>
<path d="M150.536 35.7102H147.255V38.9909H150.536V35.7102Z" fill="black"/>
<path d="M153.816 35.7102H150.536V38.9909H153.816V35.7102Z" fill="black"/>
<path d="M19.3065 38.9909H16.0258V42.2716H19.3065V38.9909Z" fill="black"/>
<path d="M22.5872 38.9909H19.3065V42.2716H22.5872V38.9909Z" fill="black"/>
<path d="M25.868 38.9909H22.5872V42.2716H25.868V38.9909Z" fill="black"/>
<path d="M29.1487 38.9909H25.868V42.2716H29.1487V38.9909Z" fill="black"/>
<path d="M42.2716 38.9909H38.9909V42.2716H42.2716V38.9909Z" fill="black"/>
<path d="M45.5524 38.9909H42.2716V42.2716H45.5524V38.9909Z" fill="black"/>
<path d="M52.1138 38.9909H48.8331V42.2716H52.1138V38.9909Z" fill="black"/>
<path d="M61.956 38.9909H58.6753V42.2716H61.956V38.9909Z" fill="black"/>
<path d="M65.2367 38.9909H61.956V42.2716H65.2367V38.9909Z" fill="black"/>
<path d="M68.5175 38.9909H65.2367V42.2716H68.5175V38.9909Z" fill="black"/>
<path d="M75.0789 38.9909H71.7982V42.2716H75.0789V38.9909Z" fill="black"/>
<path d="M84.9211 38.9909H81.6404V42.2716H84.9211V38.9909Z" fill="black"/>
<path d="M91.4826 38.9909H88.2018V42.2716H91.4826V38.9909Z" fill="black"/>
<path d="M98.044 38.9909H94.7633V42.2716H98.044V38.9909Z" fill="black"/>
<path d="M104.605 38.9909H101.325V42.2716H104.605V38.9909Z" fill="black"/>
<path d="M143.974 38.9909H140.694V42.2716H143.974V38.9909Z" fill="black"/>
<path d="M150.536 38.9909H147.255V42.2716H150.536V38.9909Z" fill="black"/>
<path d="M153.816 38.9909H150.536V42.2716H153.816V38.9909Z" fill="black"/>
<path d="M22.5872 42.2716H19.3065V45.5524H22.5872V42.2716Z" fill="black"/>
<path d="M25.868 42.2716H22.5872V45.5524H25.868V42.2716Z" fill="black"/>
<path d="M32.4294 42.2716H29.1487V45.5524H32.4294V42.2716Z" fill="black"/>
<path d="M42.2716 42.2716H38.9909V45.5524H42.2716V42.2716Z" fill="black"/>
<path d="M45.5524 42.2716H42.2716V45.5524H45.5524V42.2716Z" fill="black"/>
<path d="M48.8331 42.2716H45.5524V45.5524H48.8331V42.2716Z" fill="black"/>
<path d="M52.1138 42.2716H48.8331V45.5524H52.1138V42.2716Z" fill="black"/>
<path d="M58.6753 42.2716H55.3945V45.5524H58.6753V42.2716Z" fill="black"/>
<path d="M65.2367 42.2716H61.956V45.5524H65.2367V42.2716Z" fill="black"/>
<path d="M68.5175 42.2716H65.2367V45.5524H68.5175V42.2716Z" fill="black"/>
<path d="M81.6404 42.2716H78.3596V45.5524H81.6404V42.2716Z" fill="black"/>
<path d="M84.9211 42.2716H81.6404V45.5524H84.9211V42.2716Z" fill="black"/>
<path d="M91.4826 42.2716H88.2018V45.5524H91.4826V42.2716Z" fill="black"/>
<path d="M101.325 42.2716H98.044V45.5524H101.325V42.2716Z" fill="black"/>
<path d="M104.605 42.2716H101.325V45.5524H104.605V42.2716Z" fill="black"/>
<path d="M111.167 42.2716H107.886V45.5524H111.167V42.2716Z" fill="black"/>
<path d="M121.009 42.2716H117.728V45.5524H121.009V42.2716Z" fill="black"/>
<path d="M134.132 42.2716H130.851V45.5524H134.132V42.2716Z" fill="black"/>
<path d="M140.694 42.2716H137.413V45.5524H140.694V42.2716Z" fill="black"/>
<path d="M143.974 42.2716H140.694V45.5524H143.974V42.2716Z" fill="black"/>
<path d="M150.536 42.2716H147.255V45.5524H150.536V42.2716Z" fill="black"/>
<path d="M12.7451 45.5524H9.46432V48.8331H12.7451V45.5524Z" fill="black"/>
<path d="M25.868 45.5524H22.5872V48.8331H25.868V45.5524Z" fill="black"/>
<path d="M29.1487 45.5524H25.868V48.8331H29.1487V45.5524Z" fill="black"/>
<path d="M35.7102 45.5524H32.4294V48.8331H35.7102V45.5524Z" fill="black"/>
<path d="M38.9909 45.5524H35.7102V48.8331H38.9909V45.5524Z" fill="black"/>
<path d="M48.8331 45.5524H45.5524V48.8331H48.8331V45.5524Z" fill="black"/>
<path d="M52.1138 45.5524H48.8331V48.8331H52.1138V45.5524Z" fill="black"/>
<path d="M65.2367 45.5524H61.956V48.8331H65.2367V45.5524Z" fill="black"/>
<path d="M68.5175 45.5524H65.2367V48.8331H68.5175V45.5524Z" fill="black"/>
<path d="M71.7982 45.5524H68.5175V48.8331H71.7982V45.5524Z" fill="black"/>
<path d="M75.0789 45.5524H71.7982V48.8331H75.0789V45.5524Z" fill="black"/>
<path d="M78.3596 45.5524H75.0789V48.8331H78.3596V45.5524Z" fill="black"/>
<path d="M84.9211 45.5524H81.6404V48.8331H84.9211V45.5524Z" fill="black"/>
<path d="M98.044 45.5524H94.7633V48.8331H98.044V45.5524Z" fill="black"/>
<path d="M101.325 45.5524H98.044V48.8331H101.325V45.5524Z" fill="black"/>
<path d="M107.886 45.5524H104.605V48.8331H107.886V45.5524Z" fill="black"/>
<path d="M111.167 45.5524H107.886V48.8331H111.167V45.5524Z" fill="black"/>
<path d="M117.728 45.5524H114.448V48.8331H117.728V45.5524Z" fill="black"/>
<path d="M124.29 45.5524H121.009V48.8331H124.29V45.5524Z" fill="black"/>
<path d="M134.132 45.5524H130.851V48.8331H134.132V45.5524Z" fill="black"/>
<path d="M140.694 45.5524H137.413V48.8331H140.694V45.5524Z" fill="black"/>
<path d="M143.974 45.5524H140.694V48.8331H143.974V45.5524Z" fill="black"/>
<path d="M147.255 45.5524H143.974V48.8331H147.255V45.5524Z" fill="black"/>
<path d="M150.536 45.5524H147.255V48.8331H150.536V45.5524Z" fill="black"/>
<path d="M153.816 45.5524H150.536V48.8331H153.816V45.5524Z" fill="black"/>
<path d="M9.46432 48.8331H6.18359V52.1138H9.46432V48.8331Z" fill="black"/>
<path d="M12.7451 48.8331H9.46432V52.1138H12.7451V48.8331Z" fill="black"/>
<path d="M16.0258 48.8331H12.7451V52.1138H16.0258V48.8331Z" fill="black"/>
<path d="M32.4294 48.8331H29.1487V52.1138H32.4294V48.8331Z" fill="black"/>
<path d="M35.7102 48.8331H32.4294V52.1138H35.7102V48.8331Z" fill="black"/>
<path d="M55.3945 48.8331H52.1138V52.1138H55.3945V48.8331Z" fill="black"/>
<path d="M61.956 48.8331H58.6753V52.1138H61.956V48.8331Z" fill="black"/>
<path d="M68.5175 48.8331H65.2367V52.1138H68.5175V48.8331Z" fill="black"/>
<path d="M71.7982 48.8331H68.5175V52.1138H71.7982V48.8331Z" fill="black"/>
<path d="M75.0789 48.8331H71.7982V52.1138H75.0789V48.8331Z" fill="black"/>
<path d="M81.6404 48.8331H78.3596V52.1138H81.6404V48.8331Z" fill="black"/>
<path d="M91.4826 48.8331H88.2018V52.1138H91.4826V48.8331Z" fill="black"/>
<path d="M101.325 48.8331H98.044V52.1138H101.325V48.8331Z" fill="black"/>
<path d="M104.605 48.8331H101.325V52.1138H104.605V48.8331Z" fill="black"/>
<path d="M107.886 48.8331H104.605V52.1138H107.886V48.8331Z" fill="black"/>
<path d="M111.167 48.8331H107.886V52.1138H111.167V48.8331Z" fill="black"/>
<path d="M117.728 48.8331H114.448V52.1138H117.728V48.8331Z" fill="black"/>
<path d="M121.009 48.8331H117.728V52.1138H121.009V48.8331Z" fill="black"/>
<path d="M134.132 48.8331H130.851V52.1138H134.132V48.8331Z" fill="black"/>
<path d="M150.536 48.8331H147.255V52.1138H150.536V48.8331Z" fill="black"/>
<path d="M153.816 48.8331H150.536V52.1138H153.816V48.8331Z" fill="black"/>
<path d="M9.46432 52.1138H6.18359V55.3945H9.46432V52.1138Z" fill="black"/>
<path d="M19.3065 52.1138H16.0258V55.3945H19.3065V52.1138Z" fill="black"/>
<path d="M29.1487 52.1138H25.868V55.3945H29.1487V52.1138Z" fill="black"/>
<path d="M35.7102 52.1138H32.4294V55.3945H35.7102V52.1138Z" fill="black"/>
<path d="M45.5524 52.1138H42.2716V55.3945H45.5524V52.1138Z" fill="black"/>
<path d="M52.1138 52.1138H48.8331V55.3945H52.1138V52.1138Z" fill="black"/>
<path d="M58.6753 52.1138H55.3945V55.3945H58.6753V52.1138Z" fill="black"/>
<path d="M61.956 52.1138H58.6753V55.3945H61.956V52.1138Z" fill="black"/>
<path d="M65.2367 52.1138H61.956V55.3945H65.2367V52.1138Z" fill="black"/>
<path d="M71.7982 52.1138H68.5175V55.3945H71.7982V52.1138Z" fill="black"/>
<path d="M81.6404 52.1138H78.3596V55.3945H81.6404V52.1138Z" fill="black"/>
<path d="M88.2018 52.1138H84.9211V55.3945H88.2018V52.1138Z" fill="black"/>
<path d="M101.325 52.1138H98.044V55.3945H101.325V52.1138Z" fill="black"/>
<path d="M114.448 52.1138H111.167V55.3945H114.448V52.1138Z" fill="black"/>
<path d="M117.728 52.1138H114.448V55.3945H117.728V52.1138Z" fill="black"/>
<path d="M121.009 52.1138H117.728V55.3945H121.009V52.1138Z" fill="black"/>
<path d="M127.571 52.1138H124.29V55.3945H127.571V52.1138Z" fill="black"/>
<path d="M130.851 52.1138H127.571V55.3945H130.851V52.1138Z" fill="black"/>
<path d="M134.132 52.1138H130.851V55.3945H134.132V52.1138Z" fill="black"/>
<path d="M147.255 52.1138H143.974V55.3945H147.255V52.1138Z" fill="black"/>
<path d="M153.816 52.1138H150.536V55.3945H153.816V52.1138Z" fill="black"/>
<path d="M9.46432 55.3945H6.18359V58.6753H9.46432V55.3945Z" fill="black"/>
<path d="M12.7451 55.3945H9.46432V58.6753H12.7451V55.3945Z" fill="black"/>
<path d="M16.0258 55.3945H12.7451V58.6753H16.0258V55.3945Z" fill="black"/>
<path d="M19.3065 55.3945H16.0258V58.6753H19.3065V55.3945Z" fill="black"/>
<path d="M22.5872 55.3945H19.3065V58.6753H22.5872V55.3945Z" fill="black"/>
<path d="M25.868 55.3945H22.5872V58.6753H25.868V55.3945Z" fill="black"/>
<path d="M42.2716 55.3945H38.9909V58.6753H42.2716V55.3945Z" fill="black"/>
<path d="M48.8331 55.3945H45.5524V58.6753H48.8331V55.3945Z" fill="black"/>
<path d="M52.1138 55.3945H48.8331V58.6753H52.1138V55.3945Z" fill="black"/>
<path d="M68.5175 55.3945H65.2367V58.6753H68.5175V55.3945Z" fill="black"/>
<path d="M71.7982 55.3945H68.5175V58.6753H71.7982V55.3945Z" fill="black"/>
<path d="M75.0789 55.3945H71.7982V58.6753H75.0789V55.3945Z" fill="black"/>
<path d="M81.6404 55.3945H78.3596V58.6753H81.6404V55.3945Z" fill="black"/>
<path d="M88.2018 55.3945H84.9211V58.6753H88.2018V55.3945Z" fill="black"/>
<path d="M91.4826 55.3945H88.2018V58.6753H91.4826V55.3945Z" fill="black"/>
<path d="M101.325 55.3945H98.044V58.6753H101.325V55.3945Z" fill="black"/>
<path d="M117.728 55.3945H114.448V58.6753H117.728V55.3945Z" fill="black"/>
<path d="M124.29 55.3945H121.009V58.6753H124.29V55.3945Z" fill="black"/>
<path d="M130.851 55.3945H127.571V58.6753H130.851V55.3945Z" fill="black"/>
<path d="M140.694 55.3945H137.413V58.6753H140.694V55.3945Z" fill="black"/>
<path d="M143.974 55.3945H140.694V58.6753H143.974V55.3945Z" fill="black"/>
<path d="M150.536 55.3945H147.255V58.6753H150.536V55.3945Z" fill="black"/>
<path d="M153.816 55.3945H150.536V58.6753H153.816V55.3945Z" fill="black"/>
<path d="M9.46432 58.6753H6.18359V61.956H9.46432V58.6753Z" fill="black"/>
<path d="M16.0258 58.6753H12.7451V61.956H16.0258V58.6753Z" fill="black"/>
<path d="M25.868 58.6753H22.5872V61.956H25.868V58.6753Z" fill="black"/>
<path d="M29.1487 58.6753H25.868V61.956H29.1487V58.6753Z" fill="black"/>
<path d="M35.7102 58.6753H32.4294V61.956H35.7102V58.6753Z" fill="black"/>
<path d="M45.5524 58.6753H42.2716V61.956H45.5524V58.6753Z" fill="black"/>
<path d="M48.8331 58.6753H45.5524V61.956H48.8331V58.6753Z" fill="black"/>
<path d="M55.3945 58.6753H52.1138V61.956H55.3945V58.6753Z" fill="black"/>
<path d="M68.5175 58.6753H65.2367V61.956H68.5175V58.6753Z" fill="black"/>
<path d="M75.0789 58.6753H71.7982V61.956H75.0789V58.6753Z" fill="black"/>
<path d="M78.3596 58.6753H75.0789V61.956H78.3596V58.6753Z" fill="black"/>
<path d="M88.2018 58.6753H84.9211V61.956H88.2018V58.6753Z" fill="black"/>
<path d="M91.4826 58.6753H88.2018V61.956H91.4826V58.6753Z" fill="black"/>
<path d="M94.7633 58.6753H91.4826V61.956H94.7633V58.6753Z" fill="black"/>
<path d="M104.605 58.6753H101.325V61.956H104.605V58.6753Z" fill="black"/>
<path d="M107.886 58.6753H104.605V61.956H107.886V58.6753Z" fill="black"/>
<path d="M111.167 58.6753H107.886V61.956H111.167V58.6753Z" fill="black"/>
<path d="M114.448 58.6753H111.167V61.956H114.448V58.6753Z" fill="black"/>
<path d="M117.728 58.6753H114.448V61.956H117.728V58.6753Z" fill="black"/>
<path d="M121.009 58.6753H117.728V61.956H121.009V58.6753Z" fill="black"/>
<path d="M124.29 58.6753H121.009V61.956H124.29V58.6753Z" fill="black"/>
<path d="M127.571 58.6753H124.29V61.956H127.571V58.6753Z" fill="black"/>
<path d="M134.132 58.6753H130.851V61.956H134.132V58.6753Z" fill="black"/>
<path d="M143.974 58.6753H140.694V61.956H143.974V58.6753Z" fill="black"/>
<path d="M147.255 58.6753H143.974V61.956H147.255V58.6753Z" fill="black"/>
<path d="M9.46432 61.956H6.18359V65.2367H9.46432V61.956Z" fill="black"/>
<path d="M12.7451 61.956H9.46432V65.2367H12.7451V61.956Z" fill="black"/>
<path d="M16.0258 61.956H12.7451V65.2367H16.0258V61.956Z" fill="black"/>
<path d="M38.9909 61.956H35.7102V65.2367H38.9909V61.956Z" fill="black"/>
<path d="M42.2716 61.956H38.9909V65.2367H42.2716V61.956Z" fill="black"/>
<path d="M48.8331 61.956H45.5524V65.2367H48.8331V61.956Z" fill="black"/>
<path d="M55.3945 61.956H52.1138V65.2367H55.3945V61.956Z" fill="black"/>
<path d="M61.956 61.956H58.6753V65.2367H61.956V61.956Z" fill="black"/>
<path d="M65.2367 61.956H61.956V65.2367H65.2367V61.956Z" fill="black"/>
<path d="M78.3596 61.956H75.0789V65.2367H78.3596V61.956Z" fill="black"/>
<path d="M84.9211 61.956H81.6404V65.2367H84.9211V61.956Z" fill="black"/>
<path d="M88.2018 61.956H84.9211V65.2367H88.2018V61.956Z" fill="black"/>
<path d="M94.7633 61.956H91.4826V65.2367H94.7633V61.956Z" fill="black"/>
<path d="M101.325 61.956H98.044V65.2367H101.325V61.956Z" fill="black"/>
<path d="M104.605 61.956H101.325V65.2367H104.605V61.956Z" fill="black"/>
<path d="M107.886 61.956H104.605V65.2367H107.886V61.956Z" fill="black"/>
<path d="M114.448 61.956H111.167V65.2367H114.448V61.956Z" fill="black"/>
<path d="M127.571 61.956H124.29V65.2367H127.571V61.956Z" fill="black"/>
<path d="M130.851 61.956H127.571V65.2367H130.851V61.956Z" fill="black"/>
<path d="M137.413 61.956H134.132V65.2367H137.413V61.956Z" fill="black"/>
<path d="M140.694 61.956H137.413V65.2367H140.694V61.956Z" fill="black"/>
<path d="M143.974 61.956H140.694V65.2367H143.974V61.956Z" fill="black"/>
<path d="M150.536 61.956H147.255V65.2367H150.536V61.956Z" fill="black"/>
<path d="M12.7451 65.2367H9.46432V68.5175H12.7451V65.2367Z" fill="black"/>
<path d="M25.868 65.2367H22.5872V68.5175H25.868V65.2367Z" fill="black"/>
<path d="M29.1487 65.2367H25.868V68.5175H29.1487V65.2367Z" fill="black"/>
<path d="M35.7102 65.2367H32.4294V68.5175H35.7102V65.2367Z" fill="black"/>
<path d="M38.9909 65.2367H35.7102V68.5175H38.9909V65.2367Z" fill="black"/>
<path d="M48.8331 65.2367H45.5524V68.5175H48.8331V65.2367Z" fill="black"/>
<path d="M55.3945 65.2367H52.1138V68.5175H55.3945V65.2367Z" fill="black"/>
<path d="M61.956 65.2367H58.6753V68.5175H61.956V65.2367Z" fill="black"/>
<path d="M75.0789 65.2367H71.7982V68.5175H75.0789V65.2367Z" fill="black"/>
<path d="M81.6404 65.2367H78.3596V68.5175H81.6404V65.2367Z" fill="black"/>
<path d="M84.9211 65.2367H81.6404V68.5175H84.9211V65.2367Z" fill="black"/>
<path d="M91.4826 65.2367H88.2018V68.5175H91.4826V65.2367Z" fill="black"/>
<path d="M114.448 65.2367H111.167V68.5175H114.448V65.2367Z" fill="black"/>
<path d="M124.29 65.2367H121.009V68.5175H124.29V65.2367Z" fill="black"/>
<path d="M130.851 65.2367H127.571V68.5175H130.851V65.2367Z" fill="black"/>
<path d="M147.255 65.2367H143.974V68.5175H147.255V65.2367Z" fill="black"/>
<path d="M150.536 65.2367H147.255V68.5175H150.536V65.2367Z" fill="black"/>
<path d="M12.7451 68.5175H9.46432V71.7982H12.7451V68.5175Z" fill="black"/>
<path d="M16.0258 68.5175H12.7451V71.7982H16.0258V68.5175Z" fill="black"/>
<path d="M19.3065 68.5175H16.0258V71.7982H19.3065V68.5175Z" fill="black"/>
<path d="M25.868 68.5175H22.5872V71.7982H25.868V68.5175Z" fill="black"/>
<path d="M35.7102 68.5175H32.4294V71.7982H35.7102V68.5175Z" fill="black"/>
<path d="M38.9909 68.5175H35.7102V71.7982H38.9909V68.5175Z" fill="black"/>
<path d="M45.5524 68.5175H42.2716V71.7982H45.5524V68.5175Z" fill="black"/>
<path d="M48.8331 68.5175H45.5524V71.7982H48.8331V68.5175Z" fill="black"/>
<path d="M58.6753 68.5175H55.3945V71.7982H58.6753V68.5175Z" fill="black"/>
<path d="M68.5175 68.5175H65.2367V71.7982H68.5175V68.5175Z" fill="black"/>
<path d="M71.7982 68.5175H68.5175V71.7982H71.7982V68.5175Z" fill="black"/>
<path d="M81.6404 68.5175H78.3596V71.7982H81.6404V68.5175Z" fill="black"/>
<path d="M84.9211 68.5175H81.6404V71.7982H84.9211V68.5175Z" fill="black"/>
<path d="M98.044 68.5175H94.7633V71.7982H98.044V68.5175Z" fill="black"/>
<path d="M104.605 68.5175H101.325V71.7982H104.605V68.5175Z" fill="black"/>
<path d="M114.448 68.5175H111.167V71.7982H114.448V68.5175Z" fill="black"/>
<path d="M134.132 68.5175H130.851V71.7982H134.132V68.5175Z" fill="black"/>
<path d="M140.694 68.5175H137.413V71.7982H140.694V68.5175Z" fill="black"/>
<path d="M147.255 68.5175H143.974V71.7982H147.255V68.5175Z" fill="black"/>
<path d="M153.816 68.5175H150.536V71.7982H153.816V68.5175Z" fill="black"/>
<path d="M9.46432 71.7982H6.18359V75.0789H9.46432V71.7982Z" fill="black"/>
<path d="M12.7451 71.7982H9.46432V75.0789H12.7451V71.7982Z" fill="black"/>
<path d="M19.3065 71.7982H16.0258V75.0789H19.3065V71.7982Z" fill="black"/>
<path d="M22.5872 71.7982H19.3065V75.0789H22.5872V71.7982Z" fill="black"/>
<path d="M25.868 71.7982H22.5872V75.0789H25.868V71.7982Z" fill="black"/>
<path d="M29.1487 71.7982H25.868V75.0789H29.1487V71.7982Z" fill="black"/>
<path d="M32.4294 71.7982H29.1487V75.0789H32.4294V71.7982Z" fill="black"/>
<path d="M35.7102 71.7982H32.4294V75.0789H35.7102V71.7982Z" fill="black"/>
<path d="M38.9909 71.7982H35.7102V75.0789H38.9909V71.7982Z" fill="black"/>
<path d="M45.5524 71.7982H42.2716V75.0789H45.5524V71.7982Z" fill="black"/>
<path d="M55.3945 71.7982H52.1138V75.0789H55.3945V71.7982Z" fill="black"/>
<path d="M68.5175 71.7982H65.2367V75.0789H68.5175V71.7982Z" fill="black"/>
<path d="M75.0789 71.7982H71.7982V75.0789H75.0789V71.7982Z" fill="black"/>
<path d="M78.3596 71.7982H75.0789V75.0789H78.3596V71.7982Z" fill="black"/>
<path d="M81.6404 71.7982H78.3596V75.0789H81.6404V71.7982Z" fill="black"/>
<path d="M84.9211 71.7982H81.6404V75.0789H84.9211V71.7982Z" fill="black"/>
<path d="M88.2018 71.7982H84.9211V75.0789H88.2018V71.7982Z" fill="black"/>
<path d="M91.4826 71.7982H88.2018V75.0789H91.4826V71.7982Z" fill="black"/>
<path d="M94.7633 71.7982H91.4826V75.0789H94.7633V71.7982Z" fill="black"/>
<path d="M98.044 71.7982H94.7633V75.0789H98.044V71.7982Z" fill="black"/>
<path d="M101.325 71.7982H98.044V75.0789H101.325V71.7982Z" fill="black"/>
<path d="M104.605 71.7982H101.325V75.0789H104.605V71.7982Z" fill="black"/>
<path d="M111.167 71.7982H107.886V75.0789H111.167V71.7982Z" fill="black"/>
<path d="M114.448 71.7982H111.167V75.0789H114.448V71.7982Z" fill="black"/>
<path d="M121.009 71.7982H117.728V75.0789H121.009V71.7982Z" fill="black"/>
<path d="M124.29 71.7982H121.009V75.0789H124.29V71.7982Z" fill="black"/>
<path d="M127.571 71.7982H124.29V75.0789H127.571V71.7982Z" fill="black"/>
<path d="M130.851 71.7982H127.571V75.0789H130.851V71.7982Z" fill="black"/>
<path d="M134.132 71.7982H130.851V75.0789H134.132V71.7982Z" fill="black"/>
<path d="M137.413 71.7982H134.132V75.0789H137.413V71.7982Z" fill="black"/>
<path d="M140.694 71.7982H137.413V75.0789H140.694V71.7982Z" fill="black"/>
<path d="M143.974 71.7982H140.694V75.0789H143.974V71.7982Z" fill="black"/>
<path d="M150.536 71.7982H147.255V75.0789H150.536V71.7982Z" fill="black"/>
<path d="M153.816 71.7982H150.536V75.0789H153.816V71.7982Z" fill="black"/>
<path d="M12.7451 75.0789H9.46432V78.3596H12.7451V75.0789Z" fill="black"/>
<path d="M19.3065 75.0789H16.0258V78.3596H19.3065V75.0789Z" fill="black"/>
<path d="M22.5872 75.0789H19.3065V78.3596H22.5872V75.0789Z" fill="black"/>
<path d="M35.7102 75.0789H32.4294V78.3596H35.7102V75.0789Z" fill="black"/>
<path d="M38.9909 75.0789H35.7102V78.3596H38.9909V75.0789Z" fill="black"/>
<path d="M45.5524 75.0789H42.2716V78.3596H45.5524V75.0789Z" fill="black"/>
<path d="M55.3945 75.0789H52.1138V78.3596H55.3945V75.0789Z" fill="black"/>
<path d="M58.6753 75.0789H55.3945V78.3596H58.6753V75.0789Z" fill="black"/>
<path d="M65.2367 75.0789H61.956V78.3596H65.2367V75.0789Z" fill="black"/>
<path d="M68.5175 75.0789H65.2367V78.3596H68.5175V75.0789Z" fill="black"/>
<path d="M75.0789 75.0789H71.7982V78.3596H75.0789V75.0789Z" fill="black"/>
<path d="M88.2018 75.0789H84.9211V78.3596H88.2018V75.0789Z" fill="black"/>
<path d="M94.7633 75.0789H91.4826V78.3596H94.7633V75.0789Z" fill="black"/>
<path d="M101.325 75.0789H98.044V78.3596H101.325V75.0789Z" fill="black"/>
<path d="M111.167 75.0789H107.886V78.3596H111.167V75.0789Z" fill="black"/>
<path d="M114.448 75.0789H111.167V78.3596H114.448V75.0789Z" fill="black"/>
<path d="M127.571 75.0789H124.29V78.3596H127.571V75.0789Z" fill="black"/>
<path d="M140.694 75.0789H137.413V78.3596H140.694V75.0789Z" fill="black"/>
<path d="M153.816 75.0789H150.536V78.3596H153.816V75.0789Z" fill="black"/>
<path d="M16.0258 78.3596H12.7451V81.6404H16.0258V78.3596Z" fill="black"/>
<path d="M22.5872 78.3596H19.3065V81.6404H22.5872V78.3596Z" fill="black"/>
<path d="M29.1487 78.3596H25.868V81.6404H29.1487V78.3596Z" fill="black"/>
<path d="M35.7102 78.3596H32.4294V81.6404H35.7102V78.3596Z" fill="black"/>
<path d="M42.2716 78.3596H38.9909V81.6404H42.2716V78.3596Z" fill="black"/>
<path d="M45.5524 78.3596H42.2716V81.6404H45.5524V78.3596Z" fill="black"/>
<path d="M48.8331 78.3596H45.5524V81.6404H48.8331V78.3596Z" fill="black"/>
<path d="M55.3945 78.3596H52.1138V81.6404H55.3945V78.3596Z" fill="black"/>
<path d="M58.6753 78.3596H55.3945V81.6404H58.6753V78.3596Z" fill="black"/>
<path d="M61.956 78.3596H58.6753V81.6404H61.956V78.3596Z" fill="black"/>
<path d="M65.2367 78.3596H61.956V81.6404H65.2367V78.3596Z" fill="black"/>
<path d="M68.5175 78.3596H65.2367V81.6404H68.5175V78.3596Z" fill="black"/>
<path d="M71.7982 78.3596H68.5175V81.6404H71.7982V78.3596Z" fill="black"/>
<path d="M75.0789 78.3596H71.7982V81.6404H75.0789V78.3596Z" fill="black"/>
<path d="M81.6404 78.3596H78.3596V81.6404H81.6404V78.3596Z" fill="black"/>
<path d="M88.2018 78.3596H84.9211V81.6404H88.2018V78.3596Z" fill="black"/>
<path d="M91.4826 78.3596H88.2018V81.6404H91.4826V78.3596Z" fill="black"/>
<path d="M94.7633 78.3596H91.4826V81.6404H94.7633V78.3596Z" fill="black"/>
<path d="M104.605 78.3596H101.325V81.6404H104.605V78.3596Z" fill="black"/>
<path d="M107.886 78.3596H104.605V81.6404H107.886V78.3596Z" fill="black"/>
<path d="M117.728 78.3596H114.448V81.6404H117.728V78.3596Z" fill="black"/>
<path d="M124.29 78.3596H121.009V81.6404H124.29V78.3596Z" fill="black"/>
<path d="M127.571 78.3596H124.29V81.6404H127.571V78.3596Z" fill="black"/>
<path d="M134.132 78.3596H130.851V81.6404H134.132V78.3596Z" fill="black"/>
<path d="M140.694 78.3596H137.413V81.6404H140.694V78.3596Z" fill="black"/>
<path d="M150.536 78.3596H147.255V81.6404H150.536V78.3596Z" fill="black"/>
<path d="M12.7451 81.6404H9.46432V84.9211H12.7451V81.6404Z" fill="black"/>
<path d="M19.3065 81.6404H16.0258V84.9211H19.3065V81.6404Z" fill="black"/>
<path d="M22.5872 81.6404H19.3065V84.9211H22.5872V81.6404Z" fill="black"/>
<path d="M35.7102 81.6404H32.4294V84.9211H35.7102V81.6404Z" fill="black"/>
<path d="M38.9909 81.6404H35.7102V84.9211H38.9909V81.6404Z" fill="black"/>
<path d="M42.2716 81.6404H38.9909V84.9211H42.2716V81.6404Z" fill="black"/>
<path d="M45.5524 81.6404H42.2716V84.9211H45.5524V81.6404Z" fill="black"/>
<path d="M48.8331 81.6404H45.5524V84.9211H48.8331V81.6404Z" fill="black"/>
<path d="M52.1138 81.6404H48.8331V84.9211H52.1138V81.6404Z" fill="black"/>
<path d="M55.3945 81.6404H52.1138V84.9211H55.3945V81.6404Z" fill="black"/>
<path d="M58.6753 81.6404H55.3945V84.9211H58.6753V81.6404Z" fill="black"/>
<path d="M71.7982 81.6404H68.5175V84.9211H71.7982V81.6404Z" fill="black"/>
<path d="M75.0789 81.6404H71.7982V84.9211H75.0789V81.6404Z" fill="black"/>
<path d="M88.2018 81.6404H84.9211V84.9211H88.2018V81.6404Z" fill="black"/>
<path d="M94.7633 81.6404H91.4826V84.9211H94.7633V81.6404Z" fill="black"/>
<path d="M104.605 81.6404H101.325V84.9211H104.605V81.6404Z" fill="black"/>
<path d="M107.886 81.6404H104.605V84.9211H107.886V81.6404Z" fill="black"/>
<path d="M114.448 81.6404H111.167V84.9211H114.448V81.6404Z" fill="black"/>
<path d="M117.728 81.6404H114.448V84.9211H117.728V81.6404Z" fill="black"/>
<path d="M124.29 81.6404H121.009V84.9211H124.29V81.6404Z" fill="black"/>
<path d="M127.571 81.6404H124.29V84.9211H127.571V81.6404Z" fill="black"/>
<path d="M140.694 81.6404H137.413V84.9211H140.694V81.6404Z" fill="black"/>
<path d="M147.255 81.6404H143.974V84.9211H147.255V81.6404Z" fill="black"/>
<path d="M153.816 81.6404H150.536V84.9211H153.816V81.6404Z" fill="black"/>
<path d="M12.7451 84.9211H9.46432V88.2018H12.7451V84.9211Z" fill="black"/>
<path d="M19.3065 84.9211H16.0258V88.2018H19.3065V84.9211Z" fill="black"/>
<path d="M22.5872 84.9211H19.3065V88.2018H22.5872V84.9211Z" fill="black"/>
<path d="M25.868 84.9211H22.5872V88.2018H25.868V84.9211Z" fill="black"/>
<path d="M29.1487 84.9211H25.868V88.2018H29.1487V84.9211Z" fill="black"/>
<path d="M32.4294 84.9211H29.1487V88.2018H32.4294V84.9211Z" fill="black"/>
<path d="M35.7102 84.9211H32.4294V88.2018H35.7102V84.9211Z" fill="black"/>
<path d="M45.5524 84.9211H42.2716V88.2018H45.5524V84.9211Z" fill="black"/>
<path d="M61.956 84.9211H58.6753V88.2018H61.956V84.9211Z" fill="black"/>
<path d="M75.0789 84.9211H71.7982V88.2018H75.0789V84.9211Z" fill="black"/>
<path d="M78.3596 84.9211H75.0789V88.2018H78.3596V84.9211Z" fill="black"/>
<path d="M81.6404 84.9211H78.3596V88.2018H81.6404V84.9211Z" fill="black"/>
<path d="M84.9211 84.9211H81.6404V88.2018H84.9211V84.9211Z" fill="black"/>
<path d="M88.2018 84.9211H84.9211V88.2018H88.2018V84.9211Z" fill="black"/>
<path d="M91.4826 84.9211H88.2018V88.2018H91.4826V84.9211Z" fill="black"/>
<path d="M94.7633 84.9211H91.4826V88.2018H94.7633V84.9211Z" fill="black"/>
<path d="M104.605 84.9211H101.325V88.2018H104.605V84.9211Z" fill="black"/>
<path d="M107.886 84.9211H104.605V88.2018H107.886V84.9211Z" fill="black"/>
<path d="M117.728 84.9211H114.448V88.2018H117.728V84.9211Z" fill="black"/>
<path d="M121.009 84.9211H117.728V88.2018H121.009V84.9211Z" fill="black"/>
<path d="M127.571 84.9211H124.29V88.2018H127.571V84.9211Z" fill="black"/>
<path d="M130.851 84.9211H127.571V88.2018H130.851V84.9211Z" fill="black"/>
<path d="M134.132 84.9211H130.851V88.2018H134.132V84.9211Z" fill="black"/>
<path d="M137.413 84.9211H134.132V88.2018H137.413V84.9211Z" fill="black"/>
<path d="M140.694 84.9211H137.413V88.2018H140.694V84.9211Z" fill="black"/>
<path d="M150.536 84.9211H147.255V88.2018H150.536V84.9211Z" fill="black"/>
<path d="M153.816 84.9211H150.536V88.2018H153.816V84.9211Z" fill="black"/>
<path d="M9.46432 88.2018H6.18359V91.4826H9.46432V88.2018Z" fill="black"/>
<path d="M12.7451 88.2018H9.46432V91.4826H12.7451V88.2018Z" fill="black"/>
<path d="M16.0258 88.2018H12.7451V91.4826H16.0258V88.2018Z" fill="black"/>
<path d="M25.868 88.2018H22.5872V91.4826H25.868V88.2018Z" fill="black"/>
<path d="M32.4294 88.2018H29.1487V91.4826H32.4294V88.2018Z" fill="black"/>
<path d="M55.3945 88.2018H52.1138V91.4826H55.3945V88.2018Z" fill="black"/>
<path d="M58.6753 88.2018H55.3945V91.4826H58.6753V88.2018Z" fill="black"/>
<path d="M65.2367 88.2018H61.956V91.4826H65.2367V88.2018Z" fill="black"/>
<path d="M68.5175 88.2018H65.2367V91.4826H68.5175V88.2018Z" fill="black"/>
<path d="M71.7982 88.2018H68.5175V91.4826H71.7982V88.2018Z" fill="black"/>
<path d="M84.9211 88.2018H81.6404V91.4826H84.9211V88.2018Z" fill="black"/>
<path d="M91.4826 88.2018H88.2018V91.4826H91.4826V88.2018Z" fill="black"/>
<path d="M101.325 88.2018H98.044V91.4826H101.325V88.2018Z" fill="black"/>
<path d="M107.886 88.2018H104.605V91.4826H107.886V88.2018Z" fill="black"/>
<path d="M117.728 88.2018H114.448V91.4826H117.728V88.2018Z" fill="black"/>
<path d="M121.009 88.2018H117.728V91.4826H121.009V88.2018Z" fill="black"/>
<path d="M124.29 88.2018H121.009V91.4826H124.29V88.2018Z" fill="black"/>
<path d="M127.571 88.2018H124.29V91.4826H127.571V88.2018Z" fill="black"/>
<path d="M137.413 88.2018H134.132V91.4826H137.413V88.2018Z" fill="black"/>
<path d="M9.46432 91.4826H6.18359V94.7633H9.46432V91.4826Z" fill="black"/>
<path d="M19.3065 91.4826H16.0258V94.7633H19.3065V91.4826Z" fill="black"/>
<path d="M22.5872 91.4826H19.3065V94.7633H22.5872V91.4826Z" fill="black"/>
<path d="M25.868 91.4826H22.5872V94.7633H25.868V91.4826Z" fill="black"/>
<path d="M29.1487 91.4826H25.868V94.7633H29.1487V91.4826Z" fill="black"/>
<path d="M32.4294 91.4826H29.1487V94.7633H32.4294V91.4826Z" fill="black"/>
<path d="M38.9909 91.4826H35.7102V94.7633H38.9909V91.4826Z" fill="black"/>
<path d="M42.2716 91.4826H38.9909V94.7633H42.2716V91.4826Z" fill="black"/>
<path d="M48.8331 91.4826H45.5524V94.7633H48.8331V91.4826Z" fill="black"/>
<path d="M52.1138 91.4826H48.8331V94.7633H52.1138V91.4826Z" fill="black"/>
<path d="M55.3945 91.4826H52.1138V94.7633H55.3945V91.4826Z" fill="black"/>
<path d="M58.6753 91.4826H55.3945V94.7633H58.6753V91.4826Z" fill="black"/>
<path d="M61.956 91.4826H58.6753V94.7633H61.956V91.4826Z" fill="black"/>
<path d="M65.2367 91.4826H61.956V94.7633H65.2367V91.4826Z" fill="black"/>
<path d="M68.5175 91.4826H65.2367V94.7633H68.5175V91.4826Z" fill="black"/>
<path d="M78.3596 91.4826H75.0789V94.7633H78.3596V91.4826Z" fill="black"/>
<path d="M81.6404 91.4826H78.3596V94.7633H81.6404V91.4826Z" fill="black"/>
<path d="M84.9211 91.4826H81.6404V94.7633H84.9211V91.4826Z" fill="black"/>
<path d="M88.2018 91.4826H84.9211V94.7633H88.2018V91.4826Z" fill="black"/>
<path d="M91.4826 91.4826H88.2018V94.7633H91.4826V91.4826Z" fill="black"/>
<path d="M94.7633 91.4826H91.4826V94.7633H94.7633V91.4826Z" fill="black"/>
<path d="M104.605 91.4826H101.325V94.7633H104.605V91.4826Z" fill="black"/>
<path d="M107.886 91.4826H104.605V94.7633H107.886V91.4826Z" fill="black"/>
<path d="M117.728 91.4826H114.448V94.7633H117.728V91.4826Z" fill="black"/>
<path d="M121.009 91.4826H117.728V94.7633H121.009V91.4826Z" fill="black"/>
<path d="M124.29 91.4826H121.009V94.7633H124.29V91.4826Z" fill="black"/>
<path d="M130.851 91.4826H127.571V94.7633H130.851V91.4826Z" fill="black"/>
<path d="M134.132 91.4826H130.851V94.7633H134.132V91.4826Z" fill="black"/>
<path d="M137.413 91.4826H134.132V94.7633H137.413V91.4826Z" fill="black"/>
<path d="M143.974 91.4826H140.694V94.7633H143.974V91.4826Z" fill="black"/>
<path d="M147.255 91.4826H143.974V94.7633H147.255V91.4826Z" fill="black"/>
<path d="M12.7451 94.7633H9.46432V98.044H12.7451V94.7633Z" fill="black"/>
<path d="M16.0258 94.7633H12.7451V98.044H16.0258V94.7633Z" fill="black"/>
<path d="M22.5872 94.7633H19.3065V98.044H22.5872V94.7633Z" fill="black"/>
<path d="M25.868 94.7633H22.5872V98.044H25.868V94.7633Z" fill="black"/>
<path d="M32.4294 94.7633H29.1487V98.044H32.4294V94.7633Z" fill="black"/>
<path d="M35.7102 94.7633H32.4294V98.044H35.7102V94.7633Z" fill="black"/>
<path d="M38.9909 94.7633H35.7102V98.044H38.9909V94.7633Z" fill="black"/>
<path d="M42.2716 94.7633H38.9909V98.044H42.2716V94.7633Z" fill="black"/>
<path d="M45.5524 94.7633H42.2716V98.044H45.5524V94.7633Z" fill="black"/>
<path d="M48.8331 94.7633H45.5524V98.044H48.8331V94.7633Z" fill="black"/>
<path d="M55.3945 94.7633H52.1138V98.044H55.3945V94.7633Z" fill="black"/>
<path d="M68.5175 94.7633H65.2367V98.044H68.5175V94.7633Z" fill="black"/>
<path d="M71.7982 94.7633H68.5175V98.044H71.7982V94.7633Z" fill="black"/>
<path d="M81.6404 94.7633H78.3596V98.044H81.6404V94.7633Z" fill="black"/>
<path d="M84.9211 94.7633H81.6404V98.044H84.9211V94.7633Z" fill="black"/>
<path d="M88.2018 94.7633H84.9211V98.044H88.2018V94.7633Z" fill="black"/>
<path d="M98.044 94.7633H94.7633V98.044H98.044V94.7633Z" fill="black"/>
<path d="M101.325 94.7633H98.044V98.044H101.325V94.7633Z" fill="black"/>
<path d="M107.886 94.7633H104.605V98.044H107.886V94.7633Z" fill="black"/>
<path d="M117.728 94.7633H114.448V98.044H117.728V94.7633Z" fill="black"/>
<path d="M127.571 94.7633H124.29V98.044H127.571V94.7633Z" fill="black"/>
<path d="M130.851 94.7633H127.571V98.044H130.851V94.7633Z" fill="black"/>
<path d="M137.413 94.7633H134.132V98.044H137.413V94.7633Z" fill="black"/>
<path d="M143.974 94.7633H140.694V98.044H143.974V94.7633Z" fill="black"/>
<path d="M147.255 94.7633H143.974V98.044H147.255V94.7633Z" fill="black"/>
<path d="M16.0258 98.044H12.7451V101.325H16.0258V98.044Z" fill="black"/>
<path d="M19.3065 98.044H16.0258V101.325H19.3065V98.044Z" fill="black"/>
<path d="M22.5872 98.044H19.3065V101.325H22.5872V98.044Z" fill="black"/>
<path d="M25.868 98.044H22.5872V101.325H25.868V98.044Z" fill="black"/>
<path d="M29.1487 98.044H25.868V101.325H29.1487V98.044Z" fill="black"/>
<path d="M38.9909 98.044H35.7102V101.325H38.9909V98.044Z" fill="black"/>
<path d="M42.2716 98.044H38.9909V101.325H42.2716V98.044Z" fill="black"/>
<path d="M45.5524 98.044H42.2716V101.325H45.5524V98.044Z" fill="black"/>
<path d="M68.5175 98.044H65.2367V101.325H68.5175V98.044Z" fill="black"/>
<path d="M78.3596 98.044H75.0789V101.325H78.3596V98.044Z" fill="black"/>
<path d="M91.4826 98.044H88.2018V101.325H91.4826V98.044Z" fill="black"/>
<path d="M98.044 98.044H94.7633V101.325H98.044V98.044Z" fill="black"/>
<path d="M121.009 98.044H117.728V101.325H121.009V98.044Z" fill="black"/>
<path d="M134.132 98.044H130.851V101.325H134.132V98.044Z" fill="black"/>
<path d="M147.255 98.044H143.974V101.325H147.255V98.044Z" fill="black"/>
<path d="M9.46432 101.325H6.18359V104.605H9.46432V101.325Z" fill="black"/>
<path d="M19.3065 101.325H16.0258V104.605H19.3065V101.325Z" fill="black"/>
<path d="M22.5872 101.325H19.3065V104.605H22.5872V101.325Z" fill="black"/>
<path d="M32.4294 101.325H29.1487V104.605H32.4294V101.325Z" fill="black"/>
<path d="M35.7102 101.325H32.4294V104.605H35.7102V101.325Z" fill="black"/>
<path d="M38.9909 101.325H35.7102V104.605H38.9909V101.325Z" fill="black"/>
<path d="M42.2716 101.325H38.9909V104.605H42.2716V101.325Z" fill="black"/>
<path d="M45.5524 101.325H42.2716V104.605H45.5524V101.325Z" fill="black"/>
<path d="M61.956 101.325H58.6753V104.605H61.956V101.325Z" fill="black"/>
<path d="M65.2367 101.325H61.956V104.605H65.2367V101.325Z" fill="black"/>
<path d="M68.5175 101.325H65.2367V104.605H68.5175V101.325Z" fill="black"/>
<path d="M75.0789 101.325H71.7982V104.605H75.0789V101.325Z" fill="black"/>
<path d="M78.3596 101.325H75.0789V104.605H78.3596V101.325Z" fill="black"/>
<path d="M81.6404 101.325H78.3596V104.605H81.6404V101.325Z" fill="black"/>
<path d="M101.325 101.325H98.044V104.605H101.325V101.325Z" fill="black"/>
<path d="M104.605 101.325H101.325V104.605H104.605V101.325Z" fill="black"/>
<path d="M107.886 101.325H104.605V104.605H107.886V101.325Z" fill="black"/>
<path d="M114.448 101.325H111.167V104.605H114.448V101.325Z" fill="black"/>
<path d="M117.728 101.325H114.448V104.605H117.728V101.325Z" fill="black"/>
<path d="M121.009 101.325H117.728V104.605H121.009V101.325Z" fill="black"/>
<path d="M124.29 101.325H121.009V104.605H124.29V101.325Z" fill="black"/>
<path d="M140.694 101.325H137.413V104.605H140.694V101.325Z" fill="black"/>
<path d="M150.536 101.325H147.255V104.605H150.536V101.325Z" fill="black"/>
<path d="M153.816 101.325H150.536V104.605H153.816V101.325Z" fill="black"/>
<path d="M9.46432 104.605H6.18359V107.886H9.46432V104.605Z" fill="black"/>
<path d="M19.3065 104.605H16.0258V107.886H19.3065V104.605Z" fill="black"/>
<path d="M22.5872 104.605H19.3065V107.886H22.5872V104.605Z" fill="black"/>
<path d="M29.1487 104.605H25.868V107.886H29.1487V104.605Z" fill="black"/>
<path d="M32.4294 104.605H29.1487V107.886H32.4294V104.605Z" fill="black"/>
<path d="M35.7102 104.605H32.4294V107.886H35.7102V104.605Z" fill="black"/>
<path d="M38.9909 104.605H35.7102V107.886H38.9909V104.605Z" fill="black"/>
<path d="M42.2716 104.605H38.9909V107.886H42.2716V104.605Z" fill="black"/>
<path d="M45.5524 104.605H42.2716V107.886H45.5524V104.605Z" fill="black"/>
<path d="M52.1138 104.605H48.8331V107.886H52.1138V104.605Z" fill="black"/>
<path d="M55.3945 104.605H52.1138V107.886H55.3945V104.605Z" fill="black"/>
<path d="M65.2367 104.605H61.956V107.886H65.2367V104.605Z" fill="black"/>
<path d="M68.5175 104.605H65.2367V107.886H68.5175V104.605Z" fill="black"/>
<path d="M78.3596 104.605H75.0789V107.886H78.3596V104.605Z" fill="black"/>
<path d="M88.2018 104.605H84.9211V107.886H88.2018V104.605Z" fill="black"/>
<path d="M91.4826 104.605H88.2018V107.886H91.4826V104.605Z" fill="black"/>
<path d="M94.7633 104.605H91.4826V107.886H94.7633V104.605Z" fill="black"/>
<path d="M104.605 104.605H101.325V107.886H104.605V104.605Z" fill="black"/>
<path d="M111.167 104.605H107.886V107.886H111.167V104.605Z" fill="black"/>
<path d="M114.448 104.605H111.167V107.886H114.448V104.605Z" fill="black"/>
<path d="M117.728 104.605H114.448V107.886H117.728V104.605Z" fill="black"/>
<path d="M121.009 104.605H117.728V107.886H121.009V104.605Z" fill="black"/>
<path d="M130.851 104.605H127.571V107.886H130.851V104.605Z" fill="black"/>
<path d="M134.132 104.605H130.851V107.886H134.132V104.605Z" fill="black"/>
<path d="M137.413 104.605H134.132V107.886H137.413V104.605Z" fill="black"/>
<path d="M140.694 104.605H137.413V107.886H140.694V104.605Z" fill="black"/>
<path d="M143.974 104.605H140.694V107.886H143.974V104.605Z" fill="black"/>
<path d="M147.255 104.605H143.974V107.886H147.255V104.605Z" fill="black"/>
<path d="M12.7451 107.886H9.46432V111.167H12.7451V107.886Z" fill="black"/>
<path d="M16.0258 107.886H12.7451V111.167H16.0258V107.886Z" fill="black"/>
<path d="M19.3065 107.886H16.0258V111.167H19.3065V107.886Z" fill="black"/>
<path d="M25.868 107.886H22.5872V111.167H25.868V107.886Z" fill="black"/>
<path d="M42.2716 107.886H38.9909V111.167H42.2716V107.886Z" fill="black"/>
<path d="M45.5524 107.886H42.2716V111.167H45.5524V107.886Z" fill="black"/>
<path d="M52.1138 107.886H48.8331V111.167H52.1138V107.886Z" fill="black"/>
<path d="M65.2367 107.886H61.956V111.167H65.2367V107.886Z" fill="black"/>
<path d="M68.5175 107.886H65.2367V111.167H68.5175V107.886Z" fill="black"/>
<path d="M71.7982 107.886H68.5175V111.167H71.7982V107.886Z" fill="black"/>
<path d="M78.3596 107.886H75.0789V111.167H78.3596V107.886Z" fill="black"/>
<path d="M81.6404 107.886H78.3596V111.167H81.6404V107.886Z" fill="black"/>
<path d="M88.2018 107.886H84.9211V111.167H88.2018V107.886Z" fill="black"/>
<path d="M94.7633 107.886H91.4826V111.167H94.7633V107.886Z" fill="black"/>
<path d="M98.044 107.886H94.7633V111.167H98.044V107.886Z" fill="black"/>
<path d="M117.728 107.886H114.448V111.167H117.728V107.886Z" fill="black"/>
<path d="M121.009 107.886H117.728V111.167H121.009V107.886Z" fill="black"/>
<path d="M124.29 107.886H121.009V111.167H124.29V107.886Z" fill="black"/>
<path d="M130.851 107.886H127.571V111.167H130.851V107.886Z" fill="black"/>
<path d="M134.132 107.886H130.851V111.167H134.132V107.886Z" fill="black"/>
<path d="M143.974 107.886H140.694V111.167H143.974V107.886Z" fill="black"/>
<path d="M147.255 107.886H143.974V111.167H147.255V107.886Z" fill="black"/>
<path d="M9.46432 111.167H6.18359V114.448H9.46432V111.167Z" fill="black"/>
<path d="M22.5872 111.167H19.3065V114.448H22.5872V111.167Z" fill="black"/>
<path d="M29.1487 111.167H25.868V114.448H29.1487V111.167Z" fill="black"/>
<path d="M32.4294 111.167H29.1487V114.448H32.4294V111.167Z" fill="black"/>
<path d="M35.7102 111.167H32.4294V114.448H35.7102V111.167Z" fill="black"/>
<path d="M38.9909 111.167H35.7102V114.448H38.9909V111.167Z" fill="black"/>
<path d="M42.2716 111.167H38.9909V114.448H42.2716V111.167Z" fill="black"/>
<path d="M48.8331 111.167H45.5524V114.448H48.8331V111.167Z" fill="black"/>
<path d="M52.1138 111.167H48.8331V114.448H52.1138V111.167Z" fill="black"/>
<path d="M58.6753 111.167H55.3945V114.448H58.6753V111.167Z" fill="black"/>
<path d="M61.956 111.167H58.6753V114.448H61.956V111.167Z" fill="black"/>
<path d="M71.7982 111.167H68.5175V114.448H71.7982V111.167Z" fill="black"/>
<path d="M75.0789 111.167H71.7982V114.448H75.0789V111.167Z" fill="black"/>
<path d="M84.9211 111.167H81.6404V114.448H84.9211V111.167Z" fill="black"/>
<path d="M88.2018 111.167H84.9211V114.448H88.2018V111.167Z" fill="black"/>
<path d="M91.4826 111.167H88.2018V114.448H91.4826V111.167Z" fill="black"/>
<path d="M98.044 111.167H94.7633V114.448H98.044V111.167Z" fill="black"/>
<path d="M101.325 111.167H98.044V114.448H101.325V111.167Z" fill="black"/>
<path d="M111.167 111.167H107.886V114.448H111.167V111.167Z" fill="black"/>
<path d="M114.448 111.167H111.167V114.448H114.448V111.167Z" fill="black"/>
<path d="M121.009 111.167H117.728V114.448H121.009V111.167Z" fill="black"/>
<path d="M124.29 111.167H121.009V114.448H124.29V111.167Z" fill="black"/>
<path d="M127.571 111.167H124.29V114.448H127.571V111.167Z" fill="black"/>
<path d="M130.851 111.167H127.571V114.448H130.851V111.167Z" fill="black"/>
<path d="M134.132 111.167H130.851V114.448H134.132V111.167Z" fill="black"/>
<path d="M137.413 111.167H134.132V114.448H137.413V111.167Z" fill="black"/>
<path d="M140.694 111.167H137.413V114.448H140.694V111.167Z" fill="black"/>
<path d="M143.974 111.167H140.694V114.448H143.974V111.167Z" fill="black"/>
<path d="M150.536 111.167H147.255V114.448H150.536V111.167Z" fill="black"/>
<path d="M153.816 111.167H150.536V114.448H153.816V111.167Z" fill="black"/>
<path d="M12.7451 114.448H9.46432V117.728H12.7451V114.448Z" fill="black"/>
<path d="M16.0258 114.448H12.7451V117.728H16.0258V114.448Z" fill="black"/>
<path d="M35.7102 114.448H32.4294V117.728H35.7102V114.448Z" fill="black"/>
<path d="M38.9909 114.448H35.7102V117.728H38.9909V114.448Z" fill="black"/>
<path d="M65.2367 114.448H61.956V117.728H65.2367V114.448Z" fill="black"/>
<path d="M68.5175 114.448H65.2367V117.728H68.5175V114.448Z" fill="black"/>
<path d="M75.0789 114.448H71.7982V117.728H75.0789V114.448Z" fill="black"/>
<path d="M78.3596 114.448H75.0789V117.728H78.3596V114.448Z" fill="black"/>
<path d="M81.6404 114.448H78.3596V117.728H81.6404V114.448Z" fill="black"/>
<path d="M88.2018 114.448H84.9211V117.728H88.2018V114.448Z" fill="black"/>
<path d="M91.4826 114.448H88.2018V117.728H91.4826V114.448Z" fill="black"/>
<path d="M101.325 114.448H98.044V117.728H101.325V114.448Z" fill="black"/>
<path d="M104.605 114.448H101.325V117.728H104.605V114.448Z" fill="black"/>
<path d="M107.886 114.448H104.605V117.728H107.886V114.448Z" fill="black"/>
<path d="M114.448 114.448H111.167V117.728H114.448V114.448Z" fill="black"/>
<path d="M117.728 114.448H114.448V117.728H117.728V114.448Z" fill="black"/>
<path d="M121.009 114.448H117.728V117.728H121.009V114.448Z" fill="black"/>
<path d="M130.851 114.448H127.571V117.728H130.851V114.448Z" fill="black"/>
<path d="M134.132 114.448H130.851V117.728H134.132V114.448Z" fill="black"/>
<path d="M140.694 114.448H137.413V117.728H140.694V114.448Z" fill="black"/>
<path d="M147.255 114.448H143.974V117.728H147.255V114.448Z" fill="black"/>
<path d="M150.536 114.448H147.255V117.728H150.536V114.448Z" fill="black"/>
<path d="M22.5872 117.728H19.3065V121.009H22.5872V117.728Z" fill="black"/>
<path d="M29.1487 117.728H25.868V121.009H29.1487V117.728Z" fill="black"/>
<path d="M32.4294 117.728H29.1487V121.009H32.4294V117.728Z" fill="black"/>
<path d="M35.7102 117.728H32.4294V121.009H35.7102V117.728Z" fill="black"/>
<path d="M48.8331 117.728H45.5524V121.009H48.8331V117.728Z" fill="black"/>
<path d="M61.956 117.728H58.6753V121.009H61.956V117.728Z" fill="black"/>
<path d="M71.7982 117.728H68.5175V121.009H71.7982V117.728Z" fill="black"/>
<path d="M84.9211 117.728H81.6404V121.009H84.9211V117.728Z" fill="black"/>
<path d="M88.2018 117.728H84.9211V121.009H88.2018V117.728Z" fill="black"/>
<path d="M98.044 117.728H94.7633V121.009H98.044V117.728Z" fill="black"/>
<path d="M101.325 117.728H98.044V121.009H101.325V117.728Z" fill="black"/>
<path d="M114.448 117.728H111.167V121.009H114.448V117.728Z" fill="black"/>
<path d="M124.29 117.728H121.009V121.009H124.29V117.728Z" fill="black"/>
<path d="M137.413 117.728H134.132V121.009H137.413V117.728Z" fill="black"/>
<path d="M140.694 117.728H137.413V121.009H140.694V117.728Z" fill="black"/>
<path d="M150.536 117.728H147.255V121.009H150.536V117.728Z" fill="black"/>
<path d="M153.816 117.728H150.536V121.009H153.816V117.728Z" fill="black"/>
<path d="M12.7451 121.009H9.46432V124.29H12.7451V121.009Z" fill="black"/>
<path d="M16.0258 121.009H12.7451V124.29H16.0258V121.009Z" fill="black"/>
<path d="M19.3065 121.009H16.0258V124.29H19.3065V121.009Z" fill="black"/>
<path d="M22.5872 121.009H19.3065V124.29H22.5872V121.009Z" fill="black"/>
<path d="M38.9909 121.009H35.7102V124.29H38.9909V121.009Z" fill="black"/>
<path d="M42.2716 121.009H38.9909V124.29H42.2716V121.009Z" fill="black"/>
<path d="M52.1138 121.009H48.8331V124.29H52.1138V121.009Z" fill="black"/>
<path d="M61.956 121.009H58.6753V124.29H61.956V121.009Z" fill="black"/>
<path d="M65.2367 121.009H61.956V124.29H65.2367V121.009Z" fill="black"/>
<path d="M75.0789 121.009H71.7982V124.29H75.0789V121.009Z" fill="black"/>
<path d="M78.3596 121.009H75.0789V124.29H78.3596V121.009Z" fill="black"/>
<path d="M81.6404 121.009H78.3596V124.29H81.6404V121.009Z" fill="black"/>
<path d="M84.9211 121.009H81.6404V124.29H84.9211V121.009Z" fill="black"/>
<path d="M94.7633 121.009H91.4826V124.29H94.7633V121.009Z" fill="black"/>
<path d="M104.605 121.009H101.325V124.29H104.605V121.009Z" fill="black"/>
<path d="M111.167 121.009H107.886V124.29H111.167V121.009Z" fill="black"/>
<path d="M130.851 121.009H127.571V124.29H130.851V121.009Z" fill="black"/>
<path d="M140.694 121.009H137.413V124.29H140.694V121.009Z" fill="black"/>
<path d="M143.974 121.009H140.694V124.29H143.974V121.009Z" fill="black"/>
<path d="M150.536 121.009H147.255V124.29H150.536V121.009Z" fill="black"/>
<path d="M153.816 121.009H150.536V124.29H153.816V121.009Z" fill="black"/>
<path d="M9.46432 124.29H6.18359V127.571H9.46432V124.29Z" fill="black"/>
<path d="M19.3065 124.29H16.0258V127.571H19.3065V124.29Z" fill="black"/>
<path d="M22.5872 124.29H19.3065V127.571H22.5872V124.29Z" fill="black"/>
<path d="M29.1487 124.29H25.868V127.571H29.1487V124.29Z" fill="black"/>
<path d="M32.4294 124.29H29.1487V127.571H32.4294V124.29Z" fill="black"/>
<path d="M38.9909 124.29H35.7102V127.571H38.9909V124.29Z" fill="black"/>
<path d="M42.2716 124.29H38.9909V127.571H42.2716V124.29Z" fill="black"/>
<path d="M52.1138 124.29H48.8331V127.571H52.1138V124.29Z" fill="black"/>
<path d="M55.3945 124.29H52.1138V127.571H55.3945V124.29Z" fill="black"/>
<path d="M65.2367 124.29H61.956V127.571H65.2367V124.29Z" fill="black"/>
<path d="M68.5175 124.29H65.2367V127.571H68.5175V124.29Z" fill="black"/>
<path d="M71.7982 124.29H68.5175V127.571H71.7982V124.29Z" fill="black"/>
<path d="M75.0789 124.29H71.7982V127.571H75.0789V124.29Z" fill="black"/>
<path d="M78.3596 124.29H75.0789V127.571H78.3596V124.29Z" fill="black"/>
<path d="M81.6404 124.29H78.3596V127.571H81.6404V124.29Z" fill="black"/>
<path d="M84.9211 124.29H81.6404V127.571H84.9211V124.29Z" fill="black"/>
<path d="M88.2018 124.29H84.9211V127.571H88.2018V124.29Z" fill="black"/>
<path d="M101.325 124.29H98.044V127.571H101.325V124.29Z" fill="black"/>
<path d="M111.167 124.29H107.886V127.571H111.167V124.29Z" fill="black"/>
<path d="M114.448 124.29H111.167V127.571H114.448V124.29Z" fill="black"/>
<path d="M117.728 124.29H114.448V127.571H117.728V124.29Z" fill="black"/>
<path d="M127.571 124.29H124.29V127.571H127.571V124.29Z" fill="black"/>
<path d="M130.851 124.29H127.571V127.571H130.851V124.29Z" fill="black"/>
<path d="M134.132 124.29H130.851V127.571H134.132V124.29Z" fill="black"/>
<path d="M137.413 124.29H134.132V127.571H137.413V124.29Z" fill="black"/>
<path d="M140.694 124.29H137.413V127.571H140.694V124.29Z" fill="black"/>
<path d="M150.536 124.29H147.255V127.571H150.536V124.29Z" fill="black"/>
<path d="M153.816 124.29H150.536V127.571H153.816V124.29Z" fill="black"/>
<path d="M35.7102 127.571H32.4294V130.851H35.7102V127.571Z" fill="black"/>
<path d="M38.9909 127.571H35.7102V130.851H38.9909V127.571Z" fill="black"/>
<path d="M42.2716 127.571H38.9909V130.851H42.2716V127.571Z" fill="black"/>
<path d="M55.3945 127.571H52.1138V130.851H55.3945V127.571Z" fill="black"/>
<path d="M71.7982 127.571H68.5175V130.851H71.7982V127.571Z" fill="black"/>
<path d="M75.0789 127.571H71.7982V130.851H75.0789V127.571Z" fill="black"/>
<path d="M88.2018 127.571H84.9211V130.851H88.2018V127.571Z" fill="black"/>
<path d="M91.4826 127.571H88.2018V130.851H91.4826V127.571Z" fill="black"/>
<path d="M101.325 127.571H98.044V130.851H101.325V127.571Z" fill="black"/>
<path d="M104.605 127.571H101.325V130.851H104.605V127.571Z" fill="black"/>
<path d="M117.728 127.571H114.448V130.851H117.728V127.571Z" fill="black"/>
<path d="M124.29 127.571H121.009V130.851H124.29V127.571Z" fill="black"/>
<path d="M127.571 127.571H124.29V130.851H127.571V127.571Z" fill="black"/>
<path d="M140.694 127.571H137.413V130.851H140.694V127.571Z" fill="black"/>
<path d="M147.255 127.571H143.974V130.851H147.255V127.571Z" fill="black"/>
<path d="M150.536 127.571H147.255V130.851H150.536V127.571Z" fill="black"/>
<path d="M153.816 127.571H150.536V130.851H153.816V127.571Z" fill="black"/>
<path d="M9.46432 130.851H6.18359V134.132H9.46432V130.851Z" fill="black"/>
<path d="M12.7451 130.851H9.46432V134.132H12.7451V130.851Z" fill="black"/>
<path d="M16.0258 130.851H12.7451V134.132H16.0258V130.851Z" fill="black"/>
<path d="M19.3065 130.851H16.0258V134.132H19.3065V130.851Z" fill="black"/>
<path d="M22.5872 130.851H19.3065V134.132H22.5872V130.851Z" fill="black"/>
<path d="M25.868 130.851H22.5872V134.132H25.868V130.851Z" fill="black"/>
<path d="M29.1487 130.851H25.868V134.132H29.1487V130.851Z" fill="black"/>
<path d="M35.7102 130.851H32.4294V134.132H35.7102V130.851Z" fill="black"/>
<path d="M38.9909 130.851H35.7102V134.132H38.9909V130.851Z" fill="black"/>
<path d="M42.2716 130.851H38.9909V134.132H42.2716V130.851Z" fill="black"/>
<path d="M45.5524 130.851H42.2716V134.132H45.5524V130.851Z" fill="black"/>
<path d="M48.8331 130.851H45.5524V134.132H48.8331V130.851Z" fill="black"/>
<path d="M52.1138 130.851H48.8331V134.132H52.1138V130.851Z" fill="black"/>
<path d="M55.3945 130.851H52.1138V134.132H55.3945V130.851Z" fill="black"/>
<path d="M58.6753 130.851H55.3945V134.132H58.6753V130.851Z" fill="black"/>
<path d="M61.956 130.851H58.6753V134.132H61.956V130.851Z" fill="black"/>
<path d="M65.2367 130.851H61.956V134.132H65.2367V130.851Z" fill="black"/>
<path d="M68.5175 130.851H65.2367V134.132H68.5175V130.851Z" fill="black"/>
<path d="M71.7982 130.851H68.5175V134.132H71.7982V130.851Z" fill="black"/>
<path d="M75.0789 130.851H71.7982V134.132H75.0789V130.851Z" fill="black"/>
<path d="M81.6404 130.851H78.3596V134.132H81.6404V130.851Z" fill="black"/>
<path d="M88.2018 130.851H84.9211V134.132H88.2018V130.851Z" fill="black"/>
<path d="M98.044 130.851H94.7633V134.132H98.044V130.851Z" fill="black"/>
<path d="M111.167 130.851H107.886V134.132H111.167V130.851Z" fill="black"/>
<path d="M114.448 130.851H111.167V134.132H114.448V130.851Z" fill="black"/>
<path d="M124.29 130.851H121.009V134.132H124.29V130.851Z" fill="black"/>
<path d="M127.571 130.851H124.29V134.132H127.571V130.851Z" fill="black"/>
<path d="M134.132 130.851H130.851V134.132H134.132V130.851Z" fill="black"/>
<path d="M140.694 130.851H137.413V134.132H140.694V130.851Z" fill="black"/>
<path d="M143.974 130.851H140.694V134.132H143.974V130.851Z" fill="black"/>
<path d="M147.255 130.851H143.974V134.132H147.255V130.851Z" fill="black"/>
<path d="M9.46432 134.132H6.18359V137.413H9.46432V134.132Z" fill="black"/>
<path d="M29.1487 134.132H25.868V137.413H29.1487V134.132Z" fill="black"/>
<path d="M35.7102 134.132H32.4294V137.413H35.7102V134.132Z" fill="black"/>
<path d="M38.9909 134.132H35.7102V137.413H38.9909V134.132Z" fill="black"/>
<path d="M42.2716 134.132H38.9909V137.413H42.2716V134.132Z" fill="black"/>
<path d="M45.5524 134.132H42.2716V137.413H45.5524V134.132Z" fill="black"/>
<path d="M48.8331 134.132H45.5524V137.413H48.8331V134.132Z" fill="black"/>
<path d="M52.1138 134.132H48.8331V137.413H52.1138V134.132Z" fill="black"/>
<path d="M58.6753 134.132H55.3945V137.413H58.6753V134.132Z" fill="black"/>
<path d="M61.956 134.132H58.6753V137.413H61.956V134.132Z" fill="black"/>
<path d="M65.2367 134.132H61.956V137.413H65.2367V134.132Z" fill="black"/>
<path d="M68.5175 134.132H65.2367V137.413H68.5175V134.132Z" fill="black"/>
<path d="M71.7982 134.132H68.5175V137.413H71.7982V134.132Z" fill="black"/>
<path d="M75.0789 134.132H71.7982V137.413H75.0789V134.132Z" fill="black"/>
<path d="M88.2018 134.132H84.9211V137.413H88.2018V134.132Z" fill="black"/>
<path d="M91.4826 134.132H88.2018V137.413H91.4826V134.132Z" fill="black"/>
<path d="M94.7633 134.132H91.4826V137.413H94.7633V134.132Z" fill="black"/>
<path d="M98.044 134.132H94.7633V137.413H98.044V134.132Z" fill="black"/>
<path d="M101.325 134.132H98.044V137.413H101.325V134.132Z" fill="black"/>
<path d="M104.605 134.132H101.325V137.413H104.605V134.132Z" fill="black"/>
<path d="M107.886 134.132H104.605V137.413H107.886V134.132Z" fill="black"/>
<path d="M111.167 134.132H107.886V137.413H111.167V134.132Z" fill="black"/>
<path d="M117.728 134.132H114.448V137.413H117.728V134.132Z" fill="black"/>
<path d="M124.29 134.132H121.009V137.413H124.29V134.132Z" fill="black"/>
<path d="M127.571 134.132H124.29V137.413H127.571V134.132Z" fill="black"/>
<path d="M140.694 134.132H137.413V137.413H140.694V134.132Z" fill="black"/>
<path d="M143.974 134.132H140.694V137.413H143.974V134.132Z" fill="black"/>
<path d="M153.816 134.132H150.536V137.413H153.816V134.132Z" fill="black"/>
<path d="M9.46432 137.413H6.18359V140.694H9.46432V137.413Z" fill="black"/>
<path d="M16.0258 137.413H12.7451V140.694H16.0258V137.413Z" fill="black"/>
<path d="M19.3065 137.413H16.0258V140.694H19.3065V137.413Z" fill="black"/>
<path d="M22.5872 137.413H19.3065V140.694H22.5872V137.413Z" fill="black"/>
<path d="M29.1487 137.413H25.868V140.694H29.1487V137.413Z" fill="black"/>
<path d="M35.7102 137.413H32.4294V140.694H35.7102V137.413Z" fill="black"/>
<path d="M38.9909 137.413H35.7102V140.694H38.9909V137.413Z" fill="black"/>
<path d="M42.2716 137.413H38.9909V140.694H42.2716V137.413Z" fill="black"/>
<path d="M52.1138 137.413H48.8331V140.694H52.1138V137.413Z" fill="black"/>
<path d="M55.3945 137.413H52.1138V140.694H55.3945V137.413Z" fill="black"/>
<path d="M65.2367 137.413H61.956V140.694H65.2367V137.413Z" fill="black"/>
<path d="M68.5175 137.413H65.2367V140.694H68.5175V137.413Z" fill="black"/>
<path d="M71.7982 137.413H68.5175V140.694H71.7982V137.413Z" fill="black"/>
<path d="M75.0789 137.413H71.7982V140.694H75.0789V137.413Z" fill="black"/>
<path d="M78.3596 137.413H75.0789V140.694H78.3596V137.413Z" fill="black"/>
<path d="M81.6404 137.413H78.3596V140.694H81.6404V137.413Z" fill="black"/>
<path d="M84.9211 137.413H81.6404V140.694H84.9211V137.413Z" fill="black"/>
<path d="M88.2018 137.413H84.9211V140.694H88.2018V137.413Z" fill="black"/>
<path d="M101.325 137.413H98.044V140.694H101.325V137.413Z" fill="black"/>
<path d="M107.886 137.413H104.605V140.694H107.886V137.413Z" fill="black"/>
<path d="M111.167 137.413H107.886V140.694H111.167V137.413Z" fill="black"/>
<path d="M114.448 137.413H111.167V140.694H114.448V137.413Z" fill="black"/>
<path d="M121.009 137.413H117.728V140.694H121.009V137.413Z" fill="black"/>
<path d="M127.571 137.413H124.29V140.694H127.571V137.413Z" fill="black"/>
<path d="M130.851 137.413H127.571V140.694H130.851V137.413Z" fill="black"/>
<path d="M134.132 137.413H130.851V140.694H134.132V137.413Z" fill="black"/>
<path d="M137.413 137.413H134.132V140.694H137.413V137.413Z" fill="black"/>
<path d="M140.694 137.413H137.413V140.694H140.694V137.413Z" fill="black"/>
<path d="M143.974 137.413H140.694V140.694H143.974V137.413Z" fill="black"/>
<path d="M147.255 137.413H143.974V140.694H147.255V137.413Z" fill="black"/>
<path d="M150.536 137.413H147.255V140.694H150.536V137.413Z" fill="black"/>
<path d="M9.46432 140.694H6.18359V143.974H9.46432V140.694Z" fill="black"/>
<path d="M16.0258 140.694H12.7451V143.974H16.0258V140.694Z" fill="black"/>
<path d="M19.3065 140.694H16.0258V143.974H19.3065V140.694Z" fill="black"/>
<path d="M22.5872 140.694H19.3065V143.974H22.5872V140.694Z" fill="black"/>
<path d="M29.1487 140.694H25.868V143.974H29.1487V140.694Z" fill="black"/>
<path d="M35.7102 140.694H32.4294V143.974H35.7102V140.694Z" fill="black"/>
<path d="M38.9909 140.694H35.7102V143.974H38.9909V140.694Z" fill="black"/>
<path d="M42.2716 140.694H38.9909V143.974H42.2716V140.694Z" fill="black"/>
<path d="M52.1138 140.694H48.8331V143.974H52.1138V140.694Z" fill="black"/>
<path d="M65.2367 140.694H61.956V143.974H65.2367V140.694Z" fill="black"/>
<path d="M75.0789 140.694H71.7982V143.974H75.0789V140.694Z" fill="black"/>
<path d="M78.3596 140.694H75.0789V143.974H78.3596V140.694Z" fill="black"/>
<path d="M81.6404 140.694H78.3596V143.974H81.6404V140.694Z" fill="black"/>
<path d="M88.2018 140.694H84.9211V143.974H88.2018V140.694Z" fill="black"/>
<path d="M94.7633 140.694H91.4826V143.974H94.7633V140.694Z" fill="black"/>
<path d="M104.605 140.694H101.325V143.974H104.605V140.694Z" fill="black"/>
<path d="M107.886 140.694H104.605V143.974H107.886V140.694Z" fill="black"/>
<path d="M130.851 140.694H127.571V143.974H130.851V140.694Z" fill="black"/>
<path d="M134.132 140.694H130.851V143.974H134.132V140.694Z" fill="black"/>
<path d="M140.694 140.694H137.413V143.974H140.694V140.694Z" fill="black"/>
<path d="M143.974 140.694H140.694V143.974H143.974V140.694Z" fill="black"/>
<path d="M9.46432 143.974H6.18359V147.255H9.46432V143.974Z" fill="black"/>
<path d="M16.0258 143.974H12.7451V147.255H16.0258V143.974Z" fill="black"/>
<path d="M19.3065 143.974H16.0258V147.255H19.3065V143.974Z" fill="black"/>
<path d="M22.5872 143.974H19.3065V147.255H22.5872V143.974Z" fill="black"/>
<path d="M29.1487 143.974H25.868V147.255H29.1487V143.974Z" fill="black"/>
<path d="M38.9909 143.974H35.7102V147.255H38.9909V143.974Z" fill="black"/>
<path d="M48.8331 143.974H45.5524V147.255H48.8331V143.974Z" fill="black"/>
<path d="M65.2367 143.974H61.956V147.255H65.2367V143.974Z" fill="black"/>
<path d="M78.3596 143.974H75.0789V147.255H78.3596V143.974Z" fill="black"/>
<path d="M94.7633 143.974H91.4826V147.255H94.7633V143.974Z" fill="black"/>
<path d="M104.605 143.974H101.325V147.255H104.605V143.974Z" fill="black"/>
<path d="M117.728 143.974H114.448V147.255H117.728V143.974Z" fill="black"/>
<path d="M121.009 143.974H117.728V147.255H121.009V143.974Z" fill="black"/>
<path d="M130.851 143.974H127.571V147.255H130.851V143.974Z" fill="black"/>
<path d="M143.974 143.974H140.694V147.255H143.974V143.974Z" fill="black"/>
<path d="M9.46432 147.255H6.18359V150.536H9.46432V147.255Z" fill="black"/>
<path d="M29.1487 147.255H25.868V150.536H29.1487V147.255Z" fill="black"/>
<path d="M42.2716 147.255H38.9909V150.536H42.2716V147.255Z" fill="black"/>
<path d="M48.8331 147.255H45.5524V150.536H48.8331V147.255Z" fill="black"/>
<path d="M52.1138 147.255H48.8331V150.536H52.1138V147.255Z" fill="black"/>
<path d="M55.3945 147.255H52.1138V150.536H55.3945V147.255Z" fill="black"/>
<path d="M71.7982 147.255H68.5175V150.536H71.7982V147.255Z" fill="black"/>
<path d="M78.3596 147.255H75.0789V150.536H78.3596V147.255Z" fill="black"/>
<path d="M81.6404 147.255H78.3596V150.536H81.6404V147.255Z" fill="black"/>
<path d="M84.9211 147.255H81.6404V150.536H84.9211V147.255Z" fill="black"/>
<path d="M91.4826 147.255H88.2018V150.536H91.4826V147.255Z" fill="black"/>
<path d="M94.7633 147.255H91.4826V150.536H94.7633V147.255Z" fill="black"/>
<path d="M98.044 147.255H94.7633V150.536H98.044V147.255Z" fill="black"/>
<path d="M104.605 147.255H101.325V150.536H104.605V147.255Z" fill="black"/>
<path d="M107.886 147.255H104.605V150.536H107.886V147.255Z" fill="black"/>
<path d="M111.167 147.255H107.886V150.536H111.167V147.255Z" fill="black"/>
<path d="M117.728 147.255H114.448V150.536H117.728V147.255Z" fill="black"/>
<path d="M121.009 147.255H117.728V150.536H121.009V147.255Z" fill="black"/>
<path d="M127.571 147.255H124.29V150.536H127.571V147.255Z" fill="black"/>
<path d="M130.851 147.255H127.571V150.536H130.851V147.255Z" fill="black"/>
<path d="M134.132 147.255H130.851V150.536H134.132V147.255Z" fill="black"/>
<path d="M137.413 147.255H134.132V150.536H137.413V147.255Z" fill="black"/>
<path d="M147.255 147.255H143.974V150.536H147.255V147.255Z" fill="black"/>
<path d="M9.46432 150.536H6.18359V153.816H9.46432V150.536Z" fill="black"/>
<path d="M12.7451 150.536H9.46432V153.816H12.7451V150.536Z" fill="black"/>
<path d="M16.0258 150.536H12.7451V153.816H16.0258V150.536Z" fill="black"/>
<path d="M19.3065 150.536H16.0258V153.816H19.3065V150.536Z" fill="black"/>
<path d="M22.5872 150.536H19.3065V153.816H22.5872V150.536Z" fill="black"/>
<path d="M25.868 150.536H22.5872V153.816H25.868V150.536Z" fill="black"/>
<path d="M29.1487 150.536H25.868V153.816H29.1487V150.536Z" fill="black"/>
<path d="M35.7102 150.536H32.4294V153.816H35.7102V150.536Z" fill="black"/>
<path d="M61.956 150.536H58.6753V153.816H61.956V150.536Z" fill="black"/>
<path d="M75.0789 150.536H71.7982V153.816H75.0789V150.536Z" fill="black"/>
<path d="M78.3596 150.536H75.0789V153.816H78.3596V150.536Z" fill="black"/>
<path d="M84.9211 150.536H81.6404V153.816H84.9211V150.536Z" fill="black"/>
<path d="M98.044 150.536H94.7633V153.816H98.044V150.536Z" fill="black"/>
<path d="M101.325 150.536H98.044V153.816H101.325V150.536Z" fill="black"/>
<path d="M127.571 150.536H124.29V153.816H127.571V150.536Z" fill="black"/>
<path d="M130.851 150.536H127.571V153.816H130.851V150.536Z" fill="black"/>
<path d="M137.413 150.536H134.132V153.816H137.413V150.536Z" fill="black"/>
<path d="M153.816 150.536H150.536V153.816H153.816V150.536Z" fill="black"/>
</g>
<defs>
<clipPath id="clip0_711_9975">
<rect width="160" height="160" fill="white"/>
</clipPath>
</defs>
</svg>
