<svg width="24" height="24" viewBox="0 0 24 24" fill="none" xmlns="http://www.w3.org/2000/svg">
<path d="M21.025 13.8031C20.9989 16.8842 20.8278 18.5828 19.7077 19.703C18.3856 21.025 16.2579 21.025 12.0023 21.025C7.74678 21.025 5.61903 21.025 4.297 19.703C2.97498 18.381 2.97498 16.2532 2.97498 11.9977C2.97498 7.74212 2.97498 5.61435 4.297 4.29232C5.41713 3.17218 7.1157 3.00113 10.1969 2.97501" stroke="white" stroke-width="2" stroke-linecap="round"/>
<path d="M21.025 7.48751H13.805C12.1646 7.48751 11.1757 8.29255 10.809 8.66102C10.6955 8.77513 10.6387 8.8322 10.6379 8.83297C10.6372 8.83375 10.5801 8.89052 10.466 9.00409C10.0975 9.37076 9.29248 10.3596 9.29248 12V14.7075M21.025 7.48751L16.5125 2.97501M21.025 7.48751L16.5125 12" stroke="white" stroke-width="2" stroke-linecap="round" stroke-linejoin="round"/>
</svg>
