<svg width="24" height="24" viewBox="0 0 24 24" fill="none" xmlns="http://www.w3.org/2000/svg">
<path d="M3.89999 10.2C3.89999 6.80588 3.89999 5.10883 4.95441 4.05441C6.00883 3 7.70588 3 11.1 3H12.9C16.2941 3 17.9912 3 19.0456 4.05441C20.1 5.10883 20.1 6.80588 20.1 10.2V13.8C20.1 17.1941 20.1 18.8912 19.0456 19.9456C17.9912 21 16.2941 21 12.9 21H11.1C7.70588 21 6.00883 21 4.95441 19.9456C3.89999 18.8912 3.89999 17.1941 3.89999 13.8V10.2Z" stroke="white" stroke-width="1.8"/>
<path d="M8.39999 10.2002H15.6" stroke="white" stroke-width="1.8" stroke-linecap="round"/>
<path d="M8.39999 13.7998H12.9" stroke="white" stroke-width="1.8" stroke-linecap="round"/>
</svg>
