<svg width="15" height="14" viewBox="0 0 15 14" fill="none" xmlns="http://www.w3.org/2000/svg">
<path fill-rule="evenodd" clip-rule="evenodd" d="M14.1667 6.99992C14.1667 10.6818 11.1819 13.6666 7.50004 13.6666C3.81814 13.6666 0.833374 10.6818 0.833374 6.99992C0.833374 3.31802 3.81814 0.333252 7.50004 0.333252C11.1819 0.333252 14.1667 3.31802 14.1667 6.99992ZM10.5667 6.86667C10.8612 6.64575 10.9209 6.22789 10.7 5.93333C10.4791 5.63878 10.0612 5.57909 9.76667 5.8L7.5 7.5L5.23333 5.8C4.93878 5.57909 4.52091 5.63878 4.3 5.93333C4.07909 6.22789 4.13878 6.64575 4.43333 6.86667L7.1 8.86667C7.33704 9.04445 7.66296 9.04445 7.9 8.86667L10.5667 6.86667Z" fill="white"/>
</svg>
